<?xml version="1.0" encoding="UTF-8"?>
<svg version="1.1" xmlns="http://www.w3.org/2000/svg" width="448" height="375">
<path d="M0 0 C1.24330078 1.09441406 1.24330078 1.09441406 2.51171875 2.2109375 C3.77048828 3.30535156 3.77048828 3.30535156 5.0546875 4.421875 C38.97832494 34.40090343 60.99520684 75.53740663 64.234375 121.0546875 C67.09679326 169.85297451 52.95177528 214.87476306 20.48828125 251.67578125 C3.9630431 270.05961014 -15.18753225 283.64381336 -37.48828125 294.2109375 C-38.1539209 294.52643555 -38.81956055 294.84193359 -39.50537109 295.16699219 C-78.34162082 313.09458901 -127.20553081 313.94796314 -167.17578125 299.328125 C-181.32487146 293.84163469 -195.32713052 287.36715273 -207.48828125 278.2109375 C-208.01035156 277.82583008 -208.53242188 277.44072266 -209.0703125 277.04394531 C-215.80827388 272.06937313 -222.20060712 266.84212741 -228.35546875 261.15234375 C-230.58610064 259.0707143 -230.58610064 259.0707143 -233.55078125 256.8359375 C-248.17069425 243.77133439 -258.31490787 224.78955632 -266.48828125 207.2109375 C-266.94460938 206.30988281 -267.4009375 205.40882813 -267.87109375 204.48046875 C-286.73046692 166.22796657 -285.96078673 117.90939353 -272.48828125 78.2109375 C-266.33257135 60.8196706 -257.72408094 44.82391859 -246.48828125 30.2109375 C-245.80507812 29.3034375 -245.121875 28.3959375 -244.41796875 27.4609375 C-218.53308518 -5.60872364 -180.02598971 -28.92252629 -138.48828125 -35.7890625 C-137.28816406 -35.99273437 -136.08804688 -36.19640625 -134.8515625 -36.40625 C-87.87807423 -43.34065777 -36.44334735 -31.05038564 0 0 Z " fill="#FAE155" transform="translate(328.48828125,52.7890625)"/>
<path d="M0 0 C79.86 0 159.72 0 242 0 C247.86886305 18.78036176 247.86886305 18.78036176 248 25 C248.01901367 25.64195312 248.03802734 26.28390625 248.05761719 26.9453125 C248.80033318 54.51103398 238.94464407 77.97280484 220 98 C199.09566373 119.73497215 165.42773967 132.52932131 135.6328125 133.30078125 C133.1302791 133.32000244 130.62758248 133.32362689 128.125 133.3125 C126.81088135 133.30758545 125.4967627 133.3026709 124.14282227 133.29760742 C99.96865936 133.00577545 82.13539436 125.73328462 63.59765625 110.15625 C61.20043434 108.16637557 58.74828834 106.29747778 56.25 104.4375 C51.88853466 101.05813767 48.48398132 97.25651631 45 93 C43.98679687 91.85144531 43.98679687 91.85144531 42.953125 90.6796875 C23.87917134 68.56201783 8.07065082 37.5842822 9 8 C6.03 8 3.06 8 0 8 C0 5.36 0 2.72 0 0 Z " fill="#821C47" transform="translate(83,209)"/>
<path d="M0 0 C79.86 0 159.72 0 242 0 C247.86886305 18.78036176 247.86886305 18.78036176 248 25 C248.01901367 25.64195312 248.03802734 26.28390625 248.05761719 26.9453125 C248.80033318 54.51103398 238.94464407 77.97280484 220 98 C199.09566373 119.73497215 165.42773967 132.52932131 135.6328125 133.30078125 C133.1302791 133.32000244 130.62758248 133.32362689 128.125 133.3125 C126.81088135 133.30758545 125.4967627 133.3026709 124.14282227 133.29760742 C99.96865936 133.00577545 82.13539436 125.73328462 63.59765625 110.15625 C61.20043434 108.16637557 58.74828834 106.29747778 56.25 104.4375 C51.88853466 101.05813767 48.48398132 97.25651631 45 93 C43.98679687 91.85144531 43.98679687 91.85144531 42.953125 90.6796875 C23.87917134 68.56201783 8.07065082 37.5842822 9 8 C6.03 8 3.06 8 0 8 C0 5.36 0 2.72 0 0 Z M17 8 C17 29.22790193 25.69995347 47.81569611 36 66 C37.00057636 67.81218189 38.00066982 69.6246306 39 71.4375 C39.66526499 72.62578582 40.33127576 73.81365748 41 75 C41.66 75 42.32 75 43 75 C43.24105469 75.721875 43.48210937 76.44375 43.73046875 77.1875 C45.17546374 80.38871967 46.92511496 82.43205643 49.3125 85 C50.116875 85.87011719 50.92125 86.74023438 51.75 87.63671875 C53.41407952 89.38458005 55.10601535 91.10601535 56.8125 92.8125 C59 95 59 95 60.8125 97.5 C63.23396528 100.26738889 65.59643144 101.70678741 68.734375 103.5546875 C71.28292864 105.18048896 73.5459083 107.01123863 75.875 108.9375 C82.85549391 114.61182787 90.28251076 119.53444749 99 122 C99.95132813 122.2784375 100.90265625 122.556875 101.8828125 122.84375 C134.90533763 130.96774252 169.31737522 122.12531014 197.84619141 104.88427734 C217.31830407 92.6044262 233.41030688 71.91482418 238.64697266 49.2253418 C239.35344652 44.77201589 239.29187278 40.31104487 239.25 35.8125 C239.24540771 34.79961914 239.24081543 33.78673828 239.23608398 32.74316406 C239.13446095 24.3306613 238.68023822 16.04071467 236 8 C163.73 8 91.46 8 17 8 Z " fill="#0C0706" transform="translate(83,209)"/>
<path d="M0 0 C5.5491145 4.80923257 10.91659575 10.5709423 12 18 C-16.36852706 39.63100188 -48.32259356 49.64096321 -84 47 C-90.13077863 46.16137003 -96.0671362 44.73720456 -102 43 C-102.87471696 30.94834411 -100.36532058 21.3006696 -92.640625 11.859375 C-92.09921875 11.24578125 -91.5578125 10.6321875 -91 10 C-90.43796875 9.34515625 -89.8759375 8.6903125 -89.296875 8.015625 C-67.37877304 -15.74433427 -25.62479818 -19.97158773 0 0 Z " fill="#F6C0D9" transform="translate(281,287)"/>
<path d="M0 0 C0.66 0.66 1.32 1.32 2 2 C0.3603125 3.051875 0.3603125 3.051875 -1.3125 4.125 C-4.88102033 6.73276486 -6.65969746 8.66372708 -8 13 C-8.63134508 19.46461789 -8.97885003 25.5622383 -5 31 C0.61463068 36.47987955 4.32956776 37.29753153 12.01953125 37.21484375 C18.45944614 36.7506297 21.72074387 33.51699258 26 29 C26.99 28.505 26.99 28.505 28 28 C30.65995072 34.60307858 31.44211508 40.35014735 31.3125 47.4375 C31.31572266 48.31470703 31.31894531 49.19191406 31.32226562 50.09570312 C31.27037887 56.49664135 30.31393729 61.43031354 29 68 C-0.37 68 -29.74 68 -60 68 C-63.77487813 51.01304843 -63.97865536 34.44158467 -55.2734375 18.921875 C-49.10707336 9.63426482 -39.11001154 1.45576963 -28.0625 -1.1875 C-18.97298742 -3.02080847 -8.79164796 -3.10293458 0 0 Z " fill="#FCFCFC" transform="translate(294,99)"/>
<path d="M0 0 C-2.16857247 2.16857247 -4.34014694 4.3235544 -6.5625 6.4375 C-10.39887666 10.47061392 -12.18320373 13.2129118 -12.5 18.8125 C-12.32881961 24.2821209 -10.50185126 27.86838802 -7 32 C-2.12129225 36.53022863 1.87158033 37.40842411 8.36328125 37.3515625 C14.39210947 36.54771874 19.05980876 32.43271515 23 28 C25.67497182 34.0186866 26.30158872 39.31073901 26.3125 45.8125 C26.32023437 46.8950708 26.32023437 46.8950708 26.328125 47.99951172 C26.24614574 54.61787286 25.1209281 60.27443138 24 67 C-0.75 67 -25.5 67 -51 67 C-54.44339377 48.06133424 -55.88015607 27.05894859 -44.765625 10.21875 C-33.34327925 -4.13499421 -16.57923234 -8.21625673 0 0 Z " fill="#FCFCFC" transform="translate(130,100)"/>
<path d="M0 0 C10.55161002 8.77123 19.19327936 22.34888215 21.2734375 36.03515625 C21.87028117 50.01240215 21.23312895 62.80931238 16.2734375 76.03515625 C-17.0565625 76.03515625 -50.3865625 76.03515625 -84.7265625 76.03515625 C-89.43217566 57.21270361 -89.43217566 57.21270361 -89.2890625 47.03515625 C-89.27955566 45.92084229 -89.27004883 44.80652832 -89.26025391 43.65844727 C-88.93555411 30.70705453 -86.03443145 19.28084079 -77.7265625 9.03515625 C-77.23800781 8.36355469 -76.74945313 7.69195312 -76.24609375 7 C-57.4083772 -17.14018491 -23.08930862 -16.63885707 0 0 Z M-69.7265625 12.03515625 C-80.57244143 24.69758633 -81.46806269 39.35475318 -81.03295898 55.23193359 C-80.59738335 59.21701682 -79.59619703 63.12180088 -78.7265625 67.03515625 C-49.3565625 67.03515625 -19.9865625 67.03515625 10.2734375 67.03515625 C11.76224746 59.59110645 12.61293333 53.82092152 12.5859375 46.47265625 C12.60205078 45.59158203 12.61816406 44.71050781 12.63476562 43.80273438 C12.6392691 37.70053046 11.55181469 32.69101426 9.2734375 27.03515625 C8.56078735 27.68013062 8.56078735 27.68013062 7.83374023 28.33813477 C1.16395537 34.31224455 -3.79492672 36.63416118 -12.8828125 36.38671875 C-18.08061818 35.74413288 -20.6488254 33.22940547 -24.0390625 29.47265625 C-27.69021637 24.19876733 -27.42443952 18.22195364 -26.7265625 12.03515625 C-24.69186264 6.79221594 -21.35403271 3.20827868 -16.7265625 0.03515625 C-33.52691492 -9.65735476 -57.33471772 -0.96712424 -69.7265625 12.03515625 Z " fill="#070808" transform="translate(312.7265625,99.96484375)"/>
<path d="M0 0 C1.4795598 1.07555703 2.9372939 2.18160596 4.375 3.3125 C5.19871094 3.94929688 6.02242188 4.58609375 6.87109375 5.2421875 C18.39263042 14.81716318 24.76611295 27.69703447 27.375 42.3125 C28.23010605 54.6946947 29.08593693 70.89062614 23.375 82.3125 C-5.665 82.3125 -34.705 82.3125 -64.625 82.3125 C-68.92839172 57.92661361 -72.80433776 33.86161847 -58.375 12 C-44.19254149 -6.78794504 -20.50257711 -12.91302664 0 0 Z M-49.3125 14.0625 C-57.48041349 25.54172977 -59.8697172 36.98619352 -59.9375 50.875 C-59.94305908 51.83237061 -59.94861816 52.78974121 -59.9543457 53.77612305 C-59.88518256 60.68356988 -58.91103694 66.23929685 -57.625 73.3125 C-32.875 73.3125 -8.125 73.3125 17.375 73.3125 C19.1710056 62.69796751 19.1710056 62.69796751 19.6875 52.125 C19.68621094 51.35687988 19.68492187 50.58875977 19.68359375 49.79736328 C19.5873959 44.1301072 18.69520477 39.53296074 16.375 34.3125 C15.694375 35.055 15.01375 35.7975 14.3125 36.5625 C9.77970005 41.00666978 5.75504533 43.53173928 -0.625 43.8125 C-6.86491562 43.53748852 -10.65658282 41.44051857 -14.9375 36.8125 C-18.6419972 31.324356 -19.72878097 26.92550353 -18.625 20.3125 C-15.95522124 14.39295607 -12.27882867 10.40864427 -6.625 7.3125 C-7.90827088 4.74595824 -8.77356743 4.63787594 -11.4375 3.6875 C-25.99540218 -0.84162512 -38.97080438 3.48029983 -49.3125 14.0625 Z " fill="#090A09" transform="translate(136.625,93.6875)"/>
<path d="M0 0 C1.15242188 0.00902344 2.30484375 0.01804687 3.4921875 0.02734375 C4.36101562 0.03894531 5.22984375 0.05054687 6.125 0.0625 C6.125 0.3925 6.125 0.7225 6.125 1.0625 C4.96484375 1.11857422 4.96484375 1.11857422 3.78125 1.17578125 C-2.67354038 1.58319995 -8.00379851 2.29306534 -13.875 5.0625 C-14.205 5.7225 -14.535 6.3825 -14.875 7.0625 C-14.215 7.3925 -13.555 7.7225 -12.875 8.0625 C-12.38 9.5475 -12.38 9.5475 -11.875 11.0625 C-12.69291016 11.28292969 -12.69291016 11.28292969 -13.52734375 11.5078125 C-19.79415357 13.3717867 -24.62111787 16.21719292 -29.875 20.0625 C-31.2053125 20.9596875 -31.2053125 20.9596875 -32.5625 21.875 C-41.28090959 30.1221442 -45.73302303 41.75980227 -46.21875 53.60546875 C-46.34687208 62.21771984 -45.8279169 70.48624794 -44.875 79.0625 C-15.505 79.0625 13.865 79.0625 44.125 79.0625 C44.125 79.3925 44.125 79.7225 44.125 80.0625 C15.085 80.3925 -13.955 80.7225 -43.875 81.0625 C-44.205 83.0425 -44.535 85.0225 -44.875 87.0625 C-13.525 87.0625 17.825 87.0625 50.125 87.0625 C50.125 87.3925 50.125 87.7225 50.125 88.0625 C16.795 88.0625 -16.535 88.0625 -50.875 88.0625 C-55.58061316 69.24004736 -55.58061316 69.24004736 -55.4375 59.0625 C-55.42799316 57.94818604 -55.41848633 56.83387207 -55.40869141 55.68579102 C-55.08399161 42.73439828 -52.18286895 31.30818454 -43.875 21.0625 C-43.38644531 20.39089844 -42.89789063 19.71929687 -42.39453125 19.02734375 C-32.49743852 6.34440269 -15.74862332 -0.16070024 0 0 Z " fill="#1C1B13" transform="translate(278.875,87.9375)"/>
<path d="M0 0 C80.52 0 161.04 0 244 0 C244.33 1.65 244.66 3.3 245 5 C245.66 5 246.32 5 247 5 C247.2165625 6.7015625 247.2165625 6.7015625 247.4375 8.4375 C247.61171478 11.80777201 247.61171478 11.80777201 249 13 C249.31923492 15.0572917 249.51161352 17.11613521 249.71875 19.1875 C249.81998043 21.0167533 249.81998043 21.0167533 251 22 C251.22714004 23.63066766 251.39455086 25.26976003 251.53515625 26.91015625 C251.62216797 27.89951172 251.70917969 28.88886719 251.79882812 29.90820312 C251.88583984 30.94912109 251.97285156 31.99003906 252.0625 33.0625 C252.19881836 34.62967773 252.19881836 34.62967773 252.33789062 36.22851562 C252.56260908 38.8186915 252.7831231 41.40915767 253 44 C252.01 44.495 252.01 44.495 251 45 C249.86649466 47.01669827 249.86649466 47.01669827 249 49 C247.82015265 44.83729507 247.97457091 40.85183297 248.0625 36.5625 C248.17616545 24.38685224 245.97232267 13.88929068 243 2 C163.14 2 83.28 2 1 2 C1 4.64 1 7.28 1 10 C3.97 10 6.94 10 10 10 C10.14695312 11.95679688 10.14695312 11.95679688 10.296875 13.953125 C11.35604324 26.78478851 13.63426192 37.62939409 19.36328125 49.2578125 C19.67845703 50.12019531 19.67845703 50.12019531 20 51 C19.67 51.66 19.34 52.32 19 53 C18.34 53 17.68 53 17 53 C16.34 51.68 15.68 50.36 15 49 C14.01 49 13.02 49 12 49 C12 45.7 12 42.4 12 39 C11.34 38.67 10.68 38.34 10 38 C9.58935547 35.49975586 9.58935547 35.49975586 9.3671875 32.21484375 C9.24150391 30.46010742 9.24150391 30.46010742 9.11328125 28.66992188 C9.03464844 27.43822266 8.95601562 26.20652344 8.875 24.9375 C8.78863281 23.70193359 8.70226562 22.46636719 8.61328125 21.19335938 C8.40034105 18.12938644 8.19632138 15.06507544 8 12 C5.36 12 2.72 12 0 12 C0 8.04 0 4.08 0 0 Z " fill="#D8C770" transform="translate(82,207)"/>
<path d="M0 0 C0 0.66 0 1.32 0 2 C24.42 2 48.84 2 74 2 C74 4.31 74 6.62 74 9 C47.27 9 20.54 9 -7 9 C-7 6.36 -7 3.72 -7 1 C-3.375 -1.125 -3.375 -1.125 0 0 Z " fill="#060607" transform="translate(79,166)"/>
<path d="M0 0 C72.27 0 144.54 0 219 0 C220.56453195 5.47586183 221.22137642 8.57627762 221 14 C220.34 14 219.68 14 219 14 C219 11.69 219 9.38 219 7 C218.34 7 217.68 7 217 7 C217 5.68 217 4.36 217 3 C146.38 2.67 75.76 2.34 3 2 C3.33 8.93 3.66 15.86 4 23 C1.99557972 19.99336957 1.49982937 18.3561922 0.875 14.875 C0.70742187 13.98554688 0.53984375 13.09609375 0.3671875 12.1796875 C-0.09876216 8.14476175 0 4.06174038 0 0 Z " fill="#65203D" transform="translate(100,217)"/>
<path d="M0 0 C1.32 0.66 2.64 1.32 4 2 C4 2.66 4 3.32 4 4 C4.66 4 5.32 4 6 4 C6.495 4.99 6.495 4.99 7 6 C7.99 6.99 7.99 6.99 9 8 C10.51712578 14.39982944 9.73092554 20.63294066 9.125 27.125 C8.98771484 28.73181641 8.98771484 28.73181641 8.84765625 30.37109375 C8.15081832 38.2522326 8.15081832 38.2522326 7.46435547 41.65576172 C6.90284582 44.09217251 6.90284582 44.09217251 7 47 C-22.04 47 -51.08 47 -81 47 C-81 46.67 -81 46.34 -81 46 C-54.27 46 -27.54 46 0 46 C-0.33 45.01 -0.66 44.02 -1 43 C-0.67 41.68 -0.34 40.36 0 39 C-24.42 39 -48.84 39 -74 39 C-74 38.67 -74 38.34 -74 38 C-49.25 38 -24.5 38 1 38 C1 35.69 1 33.38 1 31 C1.16113281 30.21238281 1.32226562 29.42476562 1.48828125 28.61328125 C2.23383406 24.80583981 2.18430389 21.05798339 2.1875 17.1875 C2.19974609 16.41857422 2.21199219 15.64964844 2.22460938 14.85742188 C2.23797014 9.57991802 1.46326989 5.07228336 0 0 Z " fill="#1E1E16" transform="translate(153,129)"/>
<path d="M0 0 C3.03060975 3.03060975 4.03974227 4.97507147 5.625 8.875 C6.05039062 9.90367188 6.47578125 10.93234375 6.9140625 11.9921875 C8.90164986 17.4973755 9.1936598 22.61525688 9.1875 28.4375 C9.18669434 29.22866211 9.18588867 30.01982422 9.18505859 30.83496094 C9.08941981 40.15505412 8.14582122 49.17055222 5 58 C4.34 57.67 3.68 57.34 3 57 C3 56.34 3 55.68 3 55 C1.68 55 0.36 55 -1 55 C-2.13290113 47.69908158 -2.13290113 47.69908158 -1.51953125 44.47265625 C-0.59857379 38.31678273 -1.04098758 32.06320447 -1.21484375 25.85351562 C-1.29879642 19.73641879 -0.93824996 15.40730294 2 10 C0.68 9.67 -0.64 9.34 -2 9 C-1.34 6.03 -0.68 3.06 0 0 Z " fill="#10100B" transform="translate(325,116)"/>
<path d="M0 0 C0 0.33 0 0.66 0 1 C-1.16015625 1.05607422 -1.16015625 1.05607422 -2.34375 1.11328125 C-8.79854038 1.52069995 -14.12879851 2.23056534 -20 5 C-20.33 5.66 -20.66 6.32 -21 7 C-20.34 7.33 -19.68 7.66 -19 8 C-18.505 9.485 -18.505 9.485 -18 11 C-18.81791016 11.22042969 -18.81791016 11.22042969 -19.65234375 11.4453125 C-25.91915357 13.3092867 -30.74611787 16.15469292 -36 20 C-37.3303125 20.8971875 -37.3303125 20.8971875 -38.6875 21.8125 C-43.45701657 26.32420486 -46.72112003 31.87618509 -49 38 C-49.99 37.67 -50.98 37.34 -52 37 C-51.835 36.401875 -51.67 35.80375 -51.5 35.1875 C-50.8885876 32.88655664 -50.8885876 32.88655664 -51 30 C-51.33 30.33 -51.66 30.66 -52 31 C-53.32520503 31.68268138 -54.65812182 32.3507041 -56 33 C-54.92218537 24.59000983 -47.92962272 16.93673677 -41.5234375 11.6953125 C-28.14508633 2.70737998 -16.06611264 -0.45327591 0 0 Z " fill="#100F09" transform="translate(285,88)"/>
<path d="M0 0 C1.83695154 2.75542732 2.39499015 4.0625416 3.03515625 7.17578125 C3.2043457 7.9963501 3.37353516 8.81691895 3.54785156 9.66235352 C3.71768555 10.53690186 3.88751953 11.4114502 4.0625 12.3125 C4.2387793 13.21605225 4.41505859 14.11960449 4.59667969 15.05053711 C5.9732555 22.36863789 6.81391837 29.54864433 7 37 C7.02046387 37.69883301 7.04092773 38.39766602 7.06201172 39.11767578 C7.77342756 66.34550023 3.89542501 94.228084 -8 119 C-8.99 119.495 -8.99 119.495 -10 120 C-10.125 114.25 -10.125 114.25 -9 112 C-8.34 112 -7.68 112 -7 112 C-6.855625 110.9275 -6.71125 109.855 -6.5625 108.75 C-6.16250558 106.08337051 -5.72408076 103.58600271 -5 101 C-4.34 101 -3.68 101 -3 101 C-3.061875 99.4840625 -3.061875 99.4840625 -3.125 97.9375 C-2.9967006 93.89606888 -2.13005762 90.86811838 -1 87 C-0.44477505 84.46562393 0.07481191 81.92323412 0.5625 79.375 C0.81128906 78.10398437 1.06007813 76.83296875 1.31640625 75.5234375 C3.12043756 64.65049202 3.13477005 53.67810714 3.0625 42.6875 C3.05746607 41.34961108 3.05290657 40.0117203 3.04882812 38.67382812 C3.03718676 35.44916915 3.02083703 32.2246104 3 29 C3.66 29 4.32 29 5 29 C5 27.35 5 25.7 5 24 C4.34 24 3.68 24 3 24 C2.86722656 22.86820313 2.73445313 21.73640625 2.59765625 20.5703125 C2.4194658 19.08851821 2.24106971 17.60674864 2.0625 16.125 C1.97548828 15.37863281 1.88847656 14.63226563 1.79882812 13.86328125 C1.36673937 9.8046769 1.36673937 9.8046769 0 6 C-0.039992 4.00039988 -0.04346799 1.99952758 0 0 Z " fill="#F0DD77" transform="translate(386,142)"/>
<path d="M0 0 C2.31 0.33 4.62 0.66 7 1 C7 1.66 7 2.32 7 3 C8.134375 3.144375 9.26875 3.28875 10.4375 3.4375 C14 4 14 4 15 5 C16.49496842 5.20699563 17.9966592 5.36679259 19.5 5.5 C23.88888889 5.88888889 23.88888889 5.88888889 25 7 C26.49765479 7.13371918 27.99857593 7.23140456 29.5 7.3125 C34.3106818 7.72030205 37.92344003 9.04963859 42.1875 11.2578125 C42.785625 11.50273437 43.38375 11.74765625 44 12 C44.66 11.67 45.32 11.34 46 11 C46.70463379 11.30156006 47.40926758 11.60312012 48.13525391 11.91381836 C51.72086976 13.27332108 55.05412157 13.33437636 58.8359375 13.37890625 C59.59234528 13.39590073 60.34875305 13.4128952 61.12808228 13.43040466 C63.54363672 13.48329175 65.95918338 13.52359757 68.375 13.5625 C71.52875409 13.62152403 74.68236076 13.68609225 77.8359375 13.75390625 C78.60379578 13.76982819 79.37165405 13.78575012 80.16278076 13.80215454 C87.46022991 13.97248955 94.72285626 14.43652531 102 15 C102 15.33 102 15.66 102 16 C67.38907914 19.53537252 31.4412689 17.73815124 0 1 C0 0.67 0 0.34 0 0 Z " fill="#F1E076" transform="translate(145,344)"/>
<path d="M0 0 C4.26004463 1.39474771 6.69852885 3.37300659 9.875 6.5 C29.88895131 25.08822628 52.23847329 30.61817639 79 30.1875 C80.66144596 30.1723989 82.32290547 30.15872026 83.984375 30.14648438 C87.98992862 30.11397011 91.99480673 30.06250102 96 30 C96 30.99 96 31.98 96 33 C91.59326518 33.02519685 87.18657133 33.04308799 82.77978516 33.05493164 C81.28856677 33.05988214 79.79735301 33.06664426 78.30615234 33.07543945 C50.46254715 33.23524407 50.46254715 33.23524407 43 31 C43 30.34 43 29.68 43 29 C41.700625 28.814375 41.700625 28.814375 40.375 28.625 C37.10486147 28.01941879 34.12743101 27.11693965 31 26 C31 25.34 31 24.68 31 24 C28.03 24 25.06 24 22 24 C22 23.01 22 22.02 22 21 C21.01 21 20.02 21 19 21 C18.938125 20.21625 18.87625 19.4325 18.8125 18.625 C18.544375 17.75875 18.27625 16.8925 18 16 C15.70465742 14.86454438 15.70465742 14.86454438 13 14 C10.1875 12 10.1875 12 8 10 C8 9.34 8 8.68 8 8 C6.8553125 7.9071875 6.8553125 7.9071875 5.6875 7.8125 C3 7 3 7 1.1875 4.5625 C0 2 0 2 0 0 Z " fill="#EBD977" transform="translate(136,311)"/>
<path d="M0 0 C0 0.33 0 0.66 0 1 C-1.28197266 1.19916016 -1.28197266 1.19916016 -2.58984375 1.40234375 C-4.24693359 1.66724609 -4.24693359 1.66724609 -5.9375 1.9375 C-7.03964844 2.11152344 -8.14179688 2.28554688 -9.27734375 2.46484375 C-11.90426929 2.71845136 -11.90426929 2.71845136 -13 4 C-14.68183948 4.23287008 -16.3712416 4.41264166 -18.0625 4.5625 C-18.98160156 4.64628906 -19.90070313 4.73007812 -20.84765625 4.81640625 C-21.91306641 4.90728516 -21.91306641 4.90728516 -23 5 C-23.33 5.99 -23.66 6.98 -24 8 C-24.59167969 8.06058594 -25.18335938 8.12117188 -25.79296875 8.18359375 C-29.90978208 8.62012371 -33.95544533 9.08671346 -38 10 C-38 10.66 -38 11.32 -38 12 C-39.03640625 12.32613281 -40.0728125 12.65226562 -41.140625 12.98828125 C-42.5105468 13.42928347 -43.88033133 13.87071223 -45.25 14.3125 C-45.93191406 14.52583984 -46.61382812 14.73917969 -47.31640625 14.95898438 C-51.08350387 16.18420544 -53.92591287 17.52975142 -57 20 C-59.31347872 20.73260159 -61.645752 21.411438 -64 22 C-64.07734375 22.62003906 -64.1546875 23.24007812 -64.234375 23.87890625 C-65 26 -65 26 -66.890625 27.08984375 C-67.66921875 27.36957031 -68.4478125 27.64929688 -69.25 27.9375 C-73.45340717 29.61886287 -75.91301682 31.64063596 -79 35 C-80.485 35.495 -80.485 35.495 -82 36 C-83.22969878 39.51190809 -83.22969878 39.51190809 -84 43 C-84.556875 42.67 -85.11375 42.34 -85.6875 42 C-88.30284522 40.8690399 -90.1806646 40.84337026 -93 41 C-73.59028593 20.67645759 -44.90646209 8.34062969 -18 2 C-17.22922119 1.81308594 -16.45844238 1.62617188 -15.66430664 1.43359375 C-10.26883687 0.16734984 -5.54730435 -0.1761049 0 0 Z " fill="#ECDF7A" transform="translate(199,17)"/>
<path d="M0 0 C2.5571684 1.79525603 4.78261689 3.67520838 6.9375 5.9375 C5.2875 6.2675 3.6375 6.5975 1.9375 6.9375 C1.9375 5.6175 1.9375 4.2975 1.9375 2.9375 C1.215625 3.7625 0.49375 4.5875 -0.25 5.4375 C-3.0625 7.9375 -3.0625 7.9375 -5.875 8.25 C-6.596875 8.146875 -7.31875 8.04375 -8.0625 7.9375 C-8.0625 7.2775 -8.0625 6.6175 -8.0625 5.9375 C-11.0325 4.9475 -14.0025 3.9575 -17.0625 2.9375 C-16.7325 0.9575 -16.4025 -1.0225 -16.0625 -3.0625 C-18.0425 -4.0525 -20.0225 -5.0425 -22.0625 -6.0625 C-22.0625 -5.4025 -22.0625 -4.7425 -22.0625 -4.0625 C-24.94335938 -3.81835938 -24.94335938 -3.81835938 -27.82421875 -3.57421875 C-30.18457486 -3.16590527 -30.18457486 -3.16590527 -32.375 -1.59375 C-35.72113699 0.31276991 -38.56483807 0.66208313 -42.375 1.125 C-43.62925781 1.28355469 -44.88351563 1.44210938 -46.17578125 1.60546875 C-47.60470703 1.76982422 -47.60470703 1.76982422 -49.0625 1.9375 C-45.83887129 -0.81325294 -42.96229588 -2.74959429 -39 -4.25 C-38.16339844 -4.57355469 -37.32679687 -4.89710937 -36.46484375 -5.23046875 C-23.90099648 -9.58185 -11.02030157 -7.13916144 0 0 Z " fill="#12110E" transform="translate(137.0625,94.0625)"/>
<path d="M0 0 C2 3.75 2 3.75 2 6 C35.33 6 68.66 6 103 6 C103.33 5.34 103.66 4.68 104 4 C104.495 5.485 104.495 5.485 105 7 C100.25 10 100.25 10 98 10 C97.31676666 9.83635956 96.63353333 9.67271912 95.92959595 9.50411987 C91.97358651 8.82337652 88.13240952 8.89389618 84.12646484 8.93408203 C82.80123558 8.94109131 82.80123558 8.94109131 81.44923401 8.94824219 C79.53621556 8.95872232 77.62320806 8.97137755 75.71021652 8.98596573 C72.68454553 9.00800474 69.65893727 9.02207211 66.63320923 9.03366089 C58.03240386 9.06724933 49.43170328 9.10905503 40.83105469 9.17138672 C35.56687305 9.20896945 30.30279743 9.23203548 25.03850174 9.24569321 C23.03136861 9.25376104 21.02425 9.2673889 19.01719284 9.28662491 C16.21624278 9.31301275 13.41580472 9.32098851 10.61474609 9.32470703 C9.78246994 9.3370639 8.95019379 9.34942078 8.09269714 9.3621521 C2.4543953 9.34234572 2.4543953 9.34234572 0.24410439 7.6770916 C-1 6 -1 6 -0.6875 2.8125 C-0.460625 1.884375 -0.23375 0.95625 0 0 Z " fill="#F5DD75" transform="translate(226,170)"/>
<path d="M0 0 C0 3.16542604 -0.47563174 4.22706099 -1.9375 6.9375 C-3.37699135 9.61526348 -4.36687956 12.02100173 -5 15 C-3.68 14.67 -2.36 14.34 -1 14 C-1 14.66 -1 15.32 -1 16 C-0.34 16 0.32 16 1 16 C1 15.34 1 14.68 1 14 C1.66 14 2.32 14 3 14 C3.33 12.68 3.66 11.36 4 10 C6.64 9.67 9.28 9.34 12 9 C11.34 9.515625 10.68 10.03125 10 10.5625 C9.01 11.366875 8.02 12.17125 7 13 C6.38382813 13.474375 5.76765625 13.94875 5.1328125 14.4375 C-0.66552961 19.13032163 -4.28281754 24.57624406 -8 31 C-8.625 29.1875 -8.625 29.1875 -9 27 C-8.34 26.01 -7.68 25.02 -7 24 C-6.83286431 21.37468476 -6.83286431 21.37468476 -7 19 C-7.66 19.99 -8.32 20.98 -9 22 C-9.99 22 -10.98 22 -12 22 C-12.0825 22.9075 -12.165 23.815 -12.25 24.75 C-13.12876405 28.55797754 -14.25313454 29.33161641 -17 32 C-18.48072393 34.60005083 -19.75828279 37.27878995 -21 40 C-21.66 39.67 -22.32 39.34 -23 39 C-19.07408767 30.13928167 -14.96502886 21.53474478 -9.8125 13.3125 C-9.40918457 12.66667969 -9.00586914 12.02085938 -8.59033203 11.35546875 C-5.99524164 7.30335538 -3.14751458 3.63948844 0 0 Z " fill="#F2DE63" transform="translate(83,82)"/>
<path d="M0 0 C0 4.26410686 -2.33320143 5.79984172 -5 9 C-5 9.99 -5 10.98 -5 12 C-6.31266518 13.35368596 -7.64567325 14.68799596 -9 16 C-9 16.66 -9 17.32 -9 18 C-7.02 18 -5.04 18 -3 18 C-2.67 18.66 -2.34 19.32 -2 20 C-1.34 19.67 -0.68 19.34 0 19 C-0.33 19.99 -0.66 20.98 -1 22 C-2.051875 22.04125 -3.10375 22.0825 -4.1875 22.125 C-8.23052056 22.62279809 -8.23052056 22.62279809 -10.3125 26.0625 C-13 29 -13 29 -15.53125 29.39453125 C-18.04542437 29.37687553 -20.50014266 29.26212096 -23 29 C-22.54625 28.278125 -22.0925 27.55625 -21.625 26.8125 C-19.96964802 24.16152725 -19.96964802 24.16152725 -19.22265625 21.69140625 C-17.66508803 18.26276566 -15.38185307 15.81469041 -12.8125 13.125 C-12.32289795 12.60196289 -11.8332959 12.07892578 -11.32885742 11.54003906 C-7.63377901 7.61109493 -3.85647319 3.77077379 0 0 Z " fill="#F9E158" transform="translate(103,60)"/>
<path d="M0 0 C3.76185429 5.64278143 3.11368679 12.52474301 3.1875 19.125 C3.20055176 19.8058667 3.21360352 20.4867334 3.22705078 21.18823242 C3.23444341 25.52929155 2.53963286 28.95846376 1 33 C0.00990316 37.54105991 0.00990316 37.54105991 1 42 C0 43 -1 44 -2 45 C-2.66 45.99 -3.32 46.98 -4 48 C-4.66 48 -5.32 48 -6 48 C-6 49.65 -6 51.3 -6 53 C-4.05000871 52.80528889 -4.05000871 52.80528889 -2 52 C-0.71563266 50.0162233 -0.71563266 50.0162233 0 48 C0.66 48.33 1.32 48.66 2 49 C-0.97 54.28 -3.94 59.56 -7 65 C-8 61 -8 61 -8 58 C-10.21081851 57.89459074 -10.21081851 57.89459074 -13 59 C-13.33 59.99 -13.66 60.98 -14 62 C-14.66 61.67 -15.32 61.34 -16 61 C-15.36384766 60.06994141 -15.36384766 60.06994141 -14.71484375 59.12109375 C-11.1196492 53.69274506 -7.96013436 48.19463085 -5.1875 42.3125 C-4.8980249 41.70784912 -4.6085498 41.10319824 -4.31030273 40.48022461 C-0.02446458 31.16082779 0.26389973 23.11831074 0.125 13 C0.11597656 11.74832031 0.10695313 10.49664062 0.09765625 9.20703125 C0.07422716 6.1378199 0.04142147 3.06901244 0 0 Z " fill="#1D040F" transform="translate(321,229)"/>
<path d="M0 0 C0.33 0 0.66 0 1 0 C1.01030746 0.54679413 1.02061493 1.09358826 1.03123474 1.6569519 C1.13919328 7.33441385 1.25379974 13.01171364 1.37231445 18.68896484 C1.41569752 20.80937313 1.45737007 22.92981712 1.49731445 25.05029297 C1.55493543 28.09353408 1.61865325 31.1365949 1.68359375 34.1796875 C1.70866249 35.60787308 1.70866249 35.60787308 1.73423767 37.06491089 C1.75418289 37.94567291 1.77412811 38.82643494 1.79467773 39.73388672 C1.81799416 40.89970779 1.81799416 40.89970779 1.84178162 42.08908081 C1.88783251 44.08556935 1.88783251 44.08556935 3 46 C3.07033769 47.87379605 3.0843022 49.75001102 3.0625 51.625 C3.05347656 52.62789062 3.04445313 53.63078125 3.03515625 54.6640625 C3.02355469 55.43492187 3.01195312 56.20578125 3 57 C3.66 57 4.32 57 5 57 C5.02578125 57.556875 5.0515625 58.11375 5.078125 58.6875 C5.46203658 63.85285574 6.53835976 67.40905371 9.03125 71.9140625 C10.10734761 74.23114364 10.52455446 76.29512047 10.9375 78.8125 C12.16191478 85.90754633 15.46221755 92.03427671 18.75 98.375 C19.97495788 100.94741154 20.58696097 103.19133458 21 106 C4.17341895 90.64076629 -0.21314415 53.23149988 -1.17919922 32.07568359 C-1.81496369 10.09296883 -1.81496369 10.09296883 0 0 Z " fill="#EDDD74" transform="translate(48,166)"/>
<path d="M0 0 C4.6215423 4.13594546 7.46889227 8.74632649 10.5 14.125 C10.98557373 14.97884277 11.47114746 15.83268555 11.97143555 16.71240234 C16.93738761 25.53126269 20.88787285 34.44748263 24.375 43.9375 C24.65061768 44.67242676 24.92623535 45.40735352 25.21020508 46.16455078 C26.53636006 49.89676062 27.20721109 52.22342217 26 56 C25.5875 54.7625 25.175 53.525 24.75 52.25 C23.41575273 48.62391172 21.78439641 46.68838274 19 44 C19 42.68 19 41.36 19 40 C18.34 39.67 17.68 39.34 17 39 C17.04125 37.783125 17.0825 36.56625 17.125 35.3125 C17.13754508 31.78105873 16.59998217 29.19996434 15 26 C14.34 26 13.68 26 13 26 C11.9375 24.1875 11.9375 24.1875 11 22 C11.33 21.01 11.66 20.02 12 19 C11.01 19.33 10.02 19.66 9 20 C8.9175 19.38125 8.835 18.7625 8.75 18.125 C8.5025 17.42375 8.255 16.7225 8 16 C7.34 15.7525 6.68 15.505 6 15.25 C5.34 14.8375 4.68 14.425 4 14 C3.70914876 11.99635809 3.42757951 9.98809718 3.28125 7.96875 C2.90888257 5.36217801 1.718355 3.94248826 0 2 C0 1.34 0 0.68 0 0 Z " fill="#ECDD6C" transform="translate(359,86)"/>
<path d="M0 0 C1.32 0.33 2.64 0.66 4 1 C-8.08604245 12.79320883 -21.51583585 22.47158709 -36.4375 30.375 C-37.79657471 31.09901001 -37.79657471 31.09901001 -39.18310547 31.83764648 C-40.0288916 32.27020752 -40.87467773 32.70276855 -41.74609375 33.1484375 C-42.49560303 33.53177246 -43.2451123 33.91510742 -44.01733398 34.31005859 C-46 35 -46 35 -49 34 C-43.25 31 -43.25 31 -41 31 C-41 30.34 -41 29.68 -41 29 C-40.34 29 -39.68 29 -39 29 C-38.67 28.01 -38.34 27.02 -38 26 C-34.535 25.505 -34.535 25.505 -31 25 C-31 24.34 -31 23.68 -31 23 C-26.5 21.5 -26.5 21.5 -22 20 C-21.67 19.01 -21.34 18.02 -21 17 C-18.9375 16.3125 -18.9375 16.3125 -17 16 C-17 15.34 -17 14.68 -17 14 C-15.68 14 -14.36 14 -13 14 C-12.67 12.35 -12.34 10.7 -12 9 C-10.35 9 -8.7 9 -7 9 C-6.9175 8.21625 -6.835 7.4325 -6.75 6.625 C-6 4 -6 4 -4.0625 2.625 C-2 2 -2 2 0 3 C0 2.01 0 1.02 0 0 Z " fill="#EEDF7A" transform="translate(337,312)"/>
<path d="M0 0 C0.99 0.33 1.98 0.66 3 1 C2.401875 2.0725 1.80375 3.145 1.1875 4.25 C-1.50296425 9.57348086 -2.72486988 15.20395401 -4 21 C-4.61875 20.195625 -5.2375 19.39125 -5.875 18.5625 C-7.74164041 15.96125481 -7.74164041 15.96125481 -10 15 C-10.12375 16.134375 -10.2475 17.26875 -10.375 18.4375 C-10.58125 19.613125 -10.7875 20.78875 -11 22 C-11.66 22.33 -12.32 22.66 -13 23 C-13.29105568 17.40445447 -12.37632274 13.22999426 -10.5 8.0625 C-10.26152344 7.37865234 -10.02304688 6.69480469 -9.77734375 5.99023438 C-9.19454118 4.32341903 -8.59862949 2.66119684 -8 1 C-7.01 2.32 -6.02 3.64 -5 5 C-3.35 3.35 -1.7 1.7 0 0 Z " fill="#0A0D0A" transform="translate(82,112)"/>
<path d="M0 0 C2.51865277 3.14642508 4.34165254 6.42230042 6.1875 10 C13.23344699 23.2185518 22.19860354 34.72839407 32 46 C27.25 45.25 27.25 45.25 25 43 C25 42.01 25 41.02 25 40 C22.03 40.495 22.03 40.495 19 41 C18.505 36.05 18.505 36.05 18 31 C16.68 30.67 15.36 30.34 14 30 C13.67 28.02 13.34 26.04 13 24 C12.01 23.67 11.02 23.34 10 23 C10 22.34 10 21.68 10 21 C9.34 21 8.68 21 8 21 C6.23537317 17.91190305 6 16.76687864 6 13 C4.68 12.67 3.36 12.34 2 12 C0.86235649 7.73383684 0 4.43513689 0 0 Z " fill="#E1D067" transform="translate(103,263)"/>
<path d="M0 0 C0.66 0.66 1.32 1.32 2 2 C2.66 2.33 3.32 2.66 4 3 C4 3.66 4 4.32 4 5 C5.32 5.33 6.64 5.66 8 6 C5.68964597 6.65444811 3.37715704 7.29859275 1.0625 7.9375 C0.42248047 8.11990234 -0.21753906 8.30230469 -0.87695312 8.49023438 C-10.236539 11.05131509 -19.44124133 11.16108633 -29.11181641 11.13037109 C-31.1280055 11.12499198 -33.14397373 11.13035546 -35.16015625 11.13671875 C-36.45050781 11.13542969 -37.74085938 11.13414062 -39.0703125 11.1328125 C-40.81465576 11.13112061 -40.81465576 11.13112061 -42.59423828 11.12939453 C-46.1223583 10.99535126 -49.51593746 10.55858159 -53 10 C-53 9.67 -53 9.34 -53 9 C-51.97229492 9.01571045 -50.94458984 9.0314209 -49.88574219 9.04760742 C-46.01668356 9.10253935 -42.14765823 9.1365763 -38.27832031 9.16479492 C-36.61419855 9.17973924 -34.95011517 9.20010223 -33.28613281 9.22631836 C-23.41538365 9.37776487 -14.49314555 9.13726531 -5 6 C-5 5.34 -5 4.68 -5 4 C-4.34 3.34 -3.68 2.68 -3 2 C-4.98 2.33 -6.96 2.66 -9 3 C-9.495 2.01 -9.495 2.01 -10 1 C-6.61401171 -0.04184255 -3.53318313 -0.23042499 0 0 Z " fill="#261E0C" transform="translate(242,331)"/>
<path d="M0 0 C4.26004463 1.39474771 6.69852885 3.37300659 9.875 6.5 C15.45830126 11.74053379 21.47643335 15.84495803 27.91015625 19.96875 C31 22 31 22 33 24 C29.37 24 25.74 24 22 24 C22 23.01 22 22.02 22 21 C21.01 21 20.02 21 19 21 C18.938125 20.21625 18.87625 19.4325 18.8125 18.625 C18.544375 17.75875 18.27625 16.8925 18 16 C15.70465742 14.86454438 15.70465742 14.86454438 13 14 C10.1875 12 10.1875 12 8 10 C8 9.34 8 8.68 8 8 C6.8553125 7.9071875 6.8553125 7.9071875 5.6875 7.8125 C3 7 3 7 1.1875 4.5625 C0 2 0 2 0 0 Z " fill="#E2D46A" transform="translate(136,311)"/>
<path d="M0 0 C0.66 0 1.32 0 2 0 C2.20496094 0.69867188 2.40992188 1.39734375 2.62109375 2.1171875 C2.89050781 3.02726563 3.15992188 3.93734375 3.4375 4.875 C3.83775391 6.23238281 3.83775391 6.23238281 4.24609375 7.6171875 C4.92613826 9.98275381 4.92613826 9.98275381 6 12 C6.12598241 14.53429728 6.18980003 17.02787231 6.1875 19.5625 C6.18814453 20.28179687 6.18878906 21.00109375 6.18945312 21.7421875 C6.13655856 27.0797296 5.47172169 31.84897409 4 37 C3.01 37 2.02 37 1 37 C1.01047363 36.26475098 1.02094727 35.52950195 1.03173828 34.77197266 C1.07371798 31.38968424 1.0994583 28.00745093 1.125 24.625 C1.14175781 23.46871094 1.15851563 22.31242187 1.17578125 21.12109375 C1.21163224 14.77546782 0.86052576 8.97788772 -0.66455078 2.80615234 C-0.77524902 2.21012207 -0.88594727 1.6140918 -1 1 C-0.67 0.67 -0.34 0.34 0 0 Z " fill="#E8D561" transform="translate(162,125)"/>
<path d="M0 0 C8.25431858 12.38147787 6.25593242 31.41448985 3.5 45.375 C3.021036 47.5879911 2.52984124 49.79863579 2 52 C1.34 51.67 0.68 51.34 0 51 C0.13277344 49.87464844 0.26554688 48.74929687 0.40234375 47.58984375 C1.28953679 39.9449181 2.12516166 32.29620803 2.75 24.625 C2.84796875 23.44164062 2.9459375 22.25828125 3.046875 21.0390625 C2.99986269 17.9910978 2.71823254 16.48319908 1 14 C0.34 13.67 -0.32 13.34 -1 13 C-0.67 12.34 -0.34 11.68 0 11 C-0.66 11 -1.32 11 -2 11 C-2.33 9.35 -2.66 7.7 -3 6 C-2.01 6 -1.02 6 0 6 C0 4.02 0 2.04 0 0 Z " fill="#140E04" transform="translate(159,122)"/>
<path d="M0 0 C3.3 0 6.6 0 10 0 C10.14695312 1.95679688 10.14695312 1.95679688 10.296875 3.953125 C11.35604324 16.78478851 13.63426192 27.62939409 19.36328125 39.2578125 C19.67845703 40.12019531 19.67845703 40.12019531 20 41 C19.67 41.66 19.34 42.32 19 43 C18.34 43 17.68 43 17 43 C16.34 41.68 15.68 40.36 15 39 C14.01 39 13.02 39 12 39 C12 35.7 12 32.4 12 29 C11.34 28.67 10.68 28.34 10 28 C9.58935547 25.49975586 9.58935547 25.49975586 9.3671875 22.21484375 C9.24150391 20.46010742 9.24150391 20.46010742 9.11328125 18.66992188 C9.03464844 17.43822266 8.95601562 16.20652344 8.875 14.9375 C8.78863281 13.70193359 8.70226562 12.46636719 8.61328125 11.19335938 C8.40034105 8.12938644 8.19632138 5.06507544 8 2 C5.36 2 2.72 2 0 2 C0 1.34 0 0.68 0 0 Z " fill="#E5D26D" transform="translate(82,217)"/>
<path d="M0 0 C0.0625 2.25 0.0625 2.25 -1 5 C-3.17364303 6.20110584 -5.39729374 7.0572809 -7.7109375 7.95703125 C-10.80489963 9.36673754 -12.72120231 11.52013193 -15 14 C-15.99 14.33 -16.98 14.66 -18 15 C-19.22969878 18.51190809 -19.22969878 18.51190809 -20 22 C-20.556875 21.67 -21.11375 21.34 -21.6875 21 C-24.30284522 19.8690399 -26.1806646 19.84337026 -29 20 C-25.18457585 15.97260785 -21.11378271 12.68690998 -16.625 9.4375 C-15.67367187 8.73463867 -15.67367187 8.73463867 -14.703125 8.01757812 C-3.71399694 0 -3.71399694 0 0 0 Z " fill="#F0DE61" transform="translate(135,38)"/>
<path d="M0 0 C1.32 0 2.64 0 4 0 C4.66 0.99 5.32 1.98 6 3 C8.30144109 4.07136051 10.6340213 5.07989717 13 6 C13 6.99 13 7.98 13 9 C13.7425 9.0825 14.485 9.165 15.25 9.25 C18.57324776 10.1563403 19.70565635 11.48362309 22 14 C22.7425 14.53625 23.485 15.0725 24.25 15.625 C24.8275 16.07875 25.405 16.5325 26 17 C26 17.66 26 18.32 26 19 C26.763125 18.938125 27.52625 18.87625 28.3125 18.8125 C31.60373501 19.04212105 31.75688317 19.75688317 34 22 C36.30988315 22.74386068 38.64315944 23.42190703 41 24 C41.495 25.98 41.495 25.98 42 28 C30.01036312 24.39586444 19.70192716 16.67625006 10 9 C9.0203125 8.236875 8.040625 7.47375 7.03125 6.6875 C1.94827586 2.68965517 1.94827586 2.68965517 0 1 C0 0.67 0 0.34 0 0 Z " fill="#EEE080" transform="translate(103,316)"/>
<path d="M0 0 C2.4375 0.8125 2.4375 0.8125 5 2 C5.33 2.99 5.66 3.98 6 5 C6.99 4.67 7.98 4.34 9 4 C9 3.34 9 2.68 9 2 C9.66 2 10.32 2 11 2 C10.731875 2.845625 10.46375 3.69125 10.1875 4.5625 C9.9521741 8.87680822 11.1795981 10.19652636 13.87109375 13.38671875 C15 15 15 15 15 18 C15.66 18 16.32 18 17 18 C17 18.66 17 19.32 17 20 C17.8971875 20.0928125 17.8971875 20.0928125 18.8125 20.1875 C21.91373958 21.33938899 22.64108103 23.06759592 24 26 C23.67 26.66 23.34 27.32 23 28 C14.10447652 20.47873276 5.95286746 12.09399265 0 2 C0 1.34 0 0.68 0 0 Z " fill="#F1E06E" transform="translate(79,288)"/>
<path d="M0 0 C2.97 0.33 5.94 0.66 9 1 C9 1.66 9 2.32 9 3 C10.093125 3.309375 11.18625 3.61875 12.3125 3.9375 C19.58162428 6.03199344 19.58162428 6.03199344 22 9 C22.6875 11.1875 22.6875 11.1875 23 13 C25.475 13.495 25.475 13.495 28 14 C28 14.66 28 15.32 28 16 C21.45617472 14.68821936 16.17607515 12.15270048 10.625 8.5625 C9.73337158 7.98737671 9.73337158 7.98737671 8.82373047 7.40063477 C5.53318083 5.20957839 2.68404887 2.90221048 0 0 Z " fill="#131107" transform="translate(151,322)"/>
<path d="M0 0 C-1.625 1.125 -1.625 1.125 -4 2 C-6.86670678 1.25465624 -9.35583266 0.32208367 -12 -1 C-12 -0.34 -12 0.32 -12 1 C-14.88085938 1.24414062 -14.88085938 1.24414062 -17.76171875 1.48828125 C-20.12207486 1.89659473 -20.12207486 1.89659473 -22.3125 3.46875 C-25.65863699 5.37526991 -28.50233807 5.72458313 -32.3125 6.1875 C-33.56675781 6.34605469 -34.82101563 6.50460938 -36.11328125 6.66796875 C-37.54220703 6.83232422 -37.54220703 6.83232422 -39 7 C-35.77637129 4.24924706 -32.89979588 2.31290571 -28.9375 0.8125 C-28.10089844 0.48894531 -27.26429687 0.16539063 -26.40234375 -0.16796875 C-17.91604433 -3.10712611 -8.44210628 -3.14124885 0 0 Z " fill="#130F05" transform="translate(127,89)"/>
<path d="M0 0 C1.15242188 0.00902344 2.30484375 0.01804687 3.4921875 0.02734375 C4.36101562 0.03894531 5.22984375 0.05054687 6.125 0.0625 C6.125 0.3925 6.125 0.7225 6.125 1.0625 C4.96484375 1.11857422 4.96484375 1.11857422 3.78125 1.17578125 C-2.67354038 1.58319995 -8.00379851 2.29306534 -13.875 5.0625 C-14.205 5.7225 -14.535 6.3825 -14.875 7.0625 C-14.215 7.3925 -13.555 7.7225 -12.875 8.0625 C-12.545 9.0525 -12.215 10.0425 -11.875 11.0625 C-16.182963 11.26287037 -18.9201599 10.64443604 -22.875 9.0625 C-26.08370233 8.89492243 -26.08370233 8.89492243 -28.875 9.0625 C-26.27186352 5.91666015 -23.33507698 4.85602376 -19.5625 3.4375 C-17.89767578 2.79941406 -17.89767578 2.79941406 -16.19921875 2.1484375 C-10.72366348 0.35971322 -5.74225292 -0.05859442 0 0 Z " fill="#130E05" transform="translate(278.875,87.9375)"/>
<path d="M0 0 C1.32 1.32 2.64 2.64 4 4 C1.25 10.75 1.25 10.75 -1 13 C-1.804375 13.309375 -2.60875 13.61875 -3.4375 13.9375 C-5.99902343 14.99959508 -7.12569617 16.03644361 -9 18 C-9.66 18 -10.32 18 -11 18 C-10.34206835 16.32986582 -9.67276716 14.6642135 -9 13 C-8.566875 11.824375 -8.13375 10.64875 -7.6875 9.4375 C-5.89389662 5.78386349 -4.26772945 4.32180776 -1 2 C-0.67 1.34 -0.34 0.68 0 0 Z " fill="#070704" transform="translate(311,285)"/>
<path d="M0 0 C0.66 0.33 1.32 0.66 2 1 C2 1.99 2 2.98 2 4 C1.34 4 0.68 4 0 4 C0.02320313 4.75925781 0.04640625 5.51851563 0.0703125 6.30078125 C0.09738281 7.79158203 0.09738281 7.79158203 0.125 9.3125 C0.14820313 10.29863281 0.17140625 11.28476562 0.1953125 12.30078125 C0 15 0 15 -2 18 C-2.99 18 -3.98 18 -5 18 C-7.475 22.455 -7.475 22.455 -10 27 C-11.32 26.67 -12.64 26.34 -14 26 C-13.49210937 25.21238281 -12.98421875 24.42476563 -12.4609375 23.61328125 C-7.62614425 15.9627189 -3.59663778 8.32403667 0 0 Z " fill="#F6E160" transform="translate(326,269)"/>
<path d="M0 0 C0.66 0 1.32 0 2 0 C1.3956393 6.92526258 0.08795086 13.40911521 -1.6875 20.125 C-1.95079102 21.1267627 -2.21408203 22.12852539 -2.48535156 23.16064453 C-4.69358681 31.32168476 -7.1801665 39.42936613 -11 47 C-11.99 47.495 -11.99 47.495 -13 48 C-13.125 42.25 -13.125 42.25 -12 40 C-11.34 40 -10.68 40 -10 40 C-9.7834375 38.39125 -9.7834375 38.39125 -9.5625 36.75 C-9.16250558 34.08337051 -8.72408076 31.58600271 -8 29 C-7.34 29 -6.68 29 -6 29 C-6.061875 27.948125 -6.12375 26.89625 -6.1875 25.8125 C-6 22 -6 22 -4.59375 19.8125 C-2.46040218 16.04776854 -1.9627242 12.42639326 -1.3125 8.1875 C-1.18294922 7.39923828 -1.05339844 6.61097656 -0.91992188 5.79882812 C-0.60387031 3.86740187 -0.30063711 1.93388555 0 0 Z " fill="#ECDD7F" transform="translate(389,214)"/>
<path d="M0 0 C2 1.375 2 1.375 4 3 C4 3.66 4 4.32 4 5 C2.02 5.99 2.02 5.99 0 7 C0 7.66 0 8.32 0 9 C-1.45381897 9.69699552 -2.91322953 10.38233866 -4.375 11.0625 C-5.18710937 11.44535156 -5.99921875 11.82820313 -6.8359375 12.22265625 C-7.55007813 12.47917969 -8.26421875 12.73570312 -9 13 C-9.66 12.67 -10.32 12.34 -11 12 C-11 11.34 -11 10.68 -11 10 C-11.66 9.67 -12.32 9.34 -13 9 C-12.28125 7.03125 -12.28125 7.03125 -11 5 C-8.65321673 4.47460076 -6.49408623 4.4999232 -4.09375 4.46875 C-3.4028125 4.3140625 -2.711875 4.159375 -2 4 C-0.66965923 2.04929605 -0.66965923 2.04929605 0 0 Z " fill="#0A0704" transform="translate(276,317)"/>
<path d="M0 0 C0 0.66 0 1.32 0 2 C-2.64 2 -5.28 2 -8 2 C-8 2.66 -8 3.32 -8 4 C-11.11885355 7.39005821 -14.43215832 7.44565278 -18.78125 7.69140625 C-21.02931934 7.87498662 -21.02931934 7.87498662 -22.921875 9.01953125 C-25.63814126 10.30107793 -27.76337177 10.1961102 -30.75 10.125 C-31.73484375 10.10695313 -32.7196875 10.08890625 -33.734375 10.0703125 C-34.85585937 10.03550781 -34.85585937 10.03550781 -36 10 C-36 9.67 -36 9.34 -36 9 C-35.1028125 8.78085937 -34.205625 8.56171875 -33.28125 8.3359375 C-25.39878122 6.33274812 -17.87336418 4.00168492 -10.36914062 0.84326172 C-6.50908602 -0.71241536 -4.00410377 -1.31168917 0 0 Z " fill="#E6D570" transform="translate(271,331)"/>
<path d="M0 0 C0.66 0 1.32 0 2 0 C1.566875 1.85625 1.566875 1.85625 1.125 3.75 C0.74424426 5.49875672 0.36970976 7.24887473 0 9 C-0.19078125 9.89332031 -0.3815625 10.78664063 -0.578125 11.70703125 C-2.94672087 24.0744854 -2.42663471 36.22118297 -0.53613281 48.5925293 C-0.2797637 50.38562258 -0.1305481 52.19338276 0 54 C-0.66 54.66 -1.32 55.32 -2 56 C-4.0307868 47.96937156 -4.30292192 40.25581935 -4.25 32 C-4.25773437 30.7934375 -4.26546875 29.586875 -4.2734375 28.34375 C-4.25815217 21.31249934 -3.71103697 14.820879 -2 8 C-1.81066895 7.21544434 -1.62133789 6.43088867 -1.42626953 5.62255859 C-0.96567171 3.74467395 -0.48524694 1.87166677 0 0 Z " fill="#E8D872" transform="translate(71,115)"/>
<path d="M0 0 C0.33 0.66 0.66 1.32 1 2 C-0.41328129 2.81837442 -1.83078346 3.62946219 -3.25 4.4375 C-4.43335938 5.11619141 -4.43335938 5.11619141 -5.640625 5.80859375 C-7.78833468 6.89311602 -9.65205061 7.53148716 -12 8 C-12.99 6.68 -13.98 5.36 -15 4 C-12.90445431 0.85668147 -11.7189803 -0.7705382 -8.0625 -1.9375 C-4.77371922 -2.00461798 -2.8775589 -1.56210341 0 0 Z " fill="#080707" transform="translate(261,98)"/>
<path d="M0 0 C0.99 0.33 1.98 0.66 3 1 C0.91294379 3.08705621 -1.09933521 4.07044326 -3.74829102 5.30859375 C-13.44708333 9.85076265 -19.97939042 15.06030698 -26 24 C-26.33 24 -26.66 24 -27 24 C-27.1875 21.625 -27.1875 21.625 -27 19 C-26.01 18.34 -25.02 17.68 -24 17 C-23.67 16.01 -23.34 15.02 -23 14 C-22.01 13.67 -21.02 13.34 -20 13 C-19.67 12.01 -19.34 11.02 -19 10 C-17.35 9.67 -15.7 9.34 -14 9 C-13.67 8.01 -13.34 7.02 -13 6 C-11.07421875 4.83203125 -11.07421875 4.83203125 -8.6875 3.8125 C-7.90761719 3.46832031 -7.12773437 3.12414062 -6.32421875 2.76953125 C-4 2 -4 2 0 2 C0 1.34 0 0.68 0 0 Z " fill="#EDDE73" transform="translate(259,89)"/>
<path d="M0 0 C0.33 0.99 0.66 1.98 1 3 C-0.2087107 4.53538927 -1.42830163 6.06567495 -2.73828125 7.515625 C-4.12463047 9.01014118 -4.12463047 9.01014118 -5 11.1875 C-6.41717599 13.75613149 -8.48813125 14.5830484 -11 16 C-11.33 16.66 -11.66 17.32 -12 18 C-12.66 18 -13.32 18 -14 18 C-14 18.66 -14 19.32 -14 20 C-14.99 20 -15.98 20 -17 20 C-17.20625 20.61875 -17.4125 21.2375 -17.625 21.875 C-19.57109132 24.88259567 -21.58925136 25.2183701 -25 26 C-25.66 25.67 -26.32 25.34 -27 25 C-26.33355469 24.53851563 -25.66710937 24.07703125 -24.98046875 23.6015625 C-15.52934696 16.91307631 -6.24130913 9.90000758 0 0 Z " fill="#E4D271" transform="translate(311,296)"/>
<path d="M0 0 C0.94875 0.04125 1.8975 0.0825 2.875 0.125 C2.875 0.785 2.875 1.445 2.875 2.125 C2.215 2.125 1.555 2.125 0.875 2.125 C0.875 3.115 0.875 4.105 0.875 5.125 C3.845 5.62 3.845 5.62 6.875 6.125 C6.545 6.785 6.215 7.445 5.875 8.125 C5.01519531 7.9084375 4.15539062 7.691875 3.26953125 7.46875 C-7.72594249 4.87875837 -17.92996124 4.36891549 -29.125 6.125 C-29.125 5.465 -29.125 4.805 -29.125 4.125 C-23.23516004 2.97553123 -17.3864197 2.8013989 -11.40625 2.60742188 C-6.73549363 2.40249631 -4.18660016 0.16746401 0 0 Z " fill="#EAD670" transform="translate(293.125,83.875)"/>
<path d="M0 0 C0 4.26410686 -2.33320143 5.79984172 -5 9 C-5 9.99 -5 10.98 -5 12 C-8.33333333 15 -8.33333333 15 -11 15 C-10.67 15.99 -10.34 16.98 -10 18 C-12.97 19.32 -15.94 20.64 -19 22 C-14.70085064 13.40170129 -6.83327958 6.66570597 0 0 Z " fill="#EEDB70" transform="translate(103,60)"/>
<path d="M0 0 C0 0.66 0 1.32 0 2 C0.721875 2.12375 1.44375 2.2475 2.1875 2.375 C4.95721894 2.9904931 7.3970354 3.88444374 10 5 C10 5.66 10 6.32 10 7 C8.22888156 6.52188823 6.45811517 6.0424722 4.6875 5.5625 C3.70136719 5.29566406 2.71523437 5.02882813 1.69921875 4.75390625 C-0.21517526 4.21920575 -2.11433615 3.62855462 -4 3 C-12.50013865 2.37214885 -19.93806024 3.28575976 -28 6 C-28 5.34 -28 4.68 -28 4 C-18.45098425 -0.05109759 -10.16150945 -0.4642314 0 0 Z " fill="#EADA6F" transform="translate(124,85)"/>
<path d="M0 0 C1.5 1.375 1.5 1.375 3 3 C3 3.66 3 4.32 3 5 C2.01 5.495 2.01 5.495 1 6 C0.05431417 8.15788312 -0.80952045 10.35212122 -1.625 12.5625 C-2.07101563 13.76003906 -2.51703125 14.95757812 -2.9765625 16.19140625 C-3.31429687 17.11824219 -3.65203125 18.04507813 -4 19 C-3.34 19.33 -2.68 19.66 -2 20 C-3.05875074 23.40312738 -4.00902154 26.01353231 -6 29 C-6.66 29 -7.32 29 -8 29 C-7.43615943 22.26567877 -5.65441874 16.36541026 -3.4375 10 C-3.10814453 9.03449219 -2.77878906 8.06898438 -2.43945312 7.07421875 C-1.63313798 4.71370194 -0.81987837 2.35583283 0 0 Z " fill="#ECDD7D" transform="translate(59,123)"/>
<path d="M0 0 C8.95788336 0.42516959 17.32210784 1.74175965 26 4 C26 4.33 26 4.66 26 5 C25.10796875 4.98839844 24.2159375 4.97679687 23.296875 4.96484375 C22.12640625 4.95582031 20.9559375 4.94679688 19.75 4.9375 C18.58984375 4.92589844 17.4296875 4.91429687 16.234375 4.90234375 C13.5552211 4.98323608 11.55240642 5.33989489 9 6 C6.65885633 5.72686657 4.32249342 5.40197001 2 5 C2 3.68 2 2.36 2 1 C1.34 0.67 0.68 0.34 0 0 Z " fill="#F4DB62" transform="translate(236,16)"/>
<path d="M0 0 C0 0.33 0 0.66 0 1 C-3.49943267 1.33947025 -6.99962052 1.67044773 -10.5 2 C-11.48226562 2.09539062 -12.46453125 2.19078125 -13.4765625 2.2890625 C-19.01398367 2.80588848 -24.43881298 3.10592737 -30 3 C-29.67 2.01 -29.34 1.02 -29 0 C-20.25050509 -2.9164983 -9.08787531 -0.68680299 0 0 Z " fill="#EEE080" transform="translate(247,359)"/>
<path d="M0 0 C11.05134929 6.51087245 20.08867892 15.88143889 29 25 C26 25 26 25 23.9375 23.0625 C23.51339844 22.61390625 23.08929688 22.1653125 22.65234375 21.703125 C20.50618211 19.49100567 18.2668001 17.40078539 16 15.3125 C15.175 14.54550781 14.35 13.77851562 13.5 12.98828125 C11.02295855 11.01825922 8.91082222 10.15388222 6 9 C4.19921875 7.34375 4.19921875 7.34375 2.6875 5.5 C2.17574219 4.8915625 1.66398437 4.283125 1.13671875 3.65625 C0 2 0 2 0 0 Z " fill="#E6D975" transform="translate(320,47)"/>
<path d="M0 0 C8.61946098 2.51739305 17.06245494 5.27816608 25.375 8.6875 C26.10581787 8.98470947 26.83663574 9.28191895 27.58959961 9.58813477 C30.49569604 10.80357436 32.75090747 11.75090747 35 14 C22.94440093 11.84013033 11.31411346 6.56737777 0 2 C0 1.34 0 0.68 0 0 Z " fill="#E8DC76" transform="translate(263,20)"/>
<path d="M0 0 C-3.48199173 3.48199173 -8.5721435 3.92833903 -13.25 5.125 C-14.28769531 5.40214844 -15.32539063 5.67929687 -16.39453125 5.96484375 C-17.40386719 6.22652344 -18.41320312 6.48820312 -19.453125 6.7578125 C-20.83226074 7.11576904 -20.83226074 7.11576904 -22.23925781 7.48095703 C-25.21616486 8.04064083 -27.97781752 8.0884297 -31 8 C-30.67 7.34 -30.34 6.68 -30 6 C-26.729863 5.2795892 -23.47346572 4.74102885 -20.16601562 4.23242188 C-12.77781048 2.99764336 -7.66436126 -0.39643248 0 0 Z " fill="#EDE07F" transform="translate(278,351)"/>
<path d="M0 0 C1 3 1 3 0.109375 4.97265625 C-0.33921875 5.66230469 -0.7878125 6.35195313 -1.25 7.0625 C-1.68828125 7.75472656 -2.1265625 8.44695312 -2.578125 9.16015625 C-4 11 -4 11 -7 13 C-7.99 14.485 -7.99 14.485 -9 16 C-12.625 16.6875 -12.625 16.6875 -16 17 C-14.94232422 15.95779297 -14.94232422 15.95779297 -13.86328125 14.89453125 C-10.87802862 11.90927862 -8.02862348 8.80932192 -5.1875 5.6875 C-4.68541016 5.13771484 -4.18332031 4.58792969 -3.66601562 4.02148438 C-2.44296032 2.68194761 -1.22132992 1.34111008 0 0 Z " fill="#13060B" transform="translate(304,292)"/>
<path d="M0 0 C0.66 0 1.32 0 2 0 C-1.59976613 9.8254486 -8.94453013 17.48056499 -16 25 C-16.33 24.01 -16.66 23.02 -17 22 C-14.69347521 18.66835308 -12.01183864 15.71065478 -9 13 C-8.34 13 -7.68 13 -7 13 C-6.67 11.68 -6.34 10.36 -6 9 C-5.34 9 -4.68 9 -4 9 C-3.855625 8.38125 -3.71125 7.7625 -3.5625 7.125 C-3 5 -3 5 -2 3 C-1.34 3 -0.68 3 0 3 C0 2.01 0 1.02 0 0 Z " fill="#672340" transform="translate(310,279)"/>
<path d="M0 0 C0.66 0 1.32 0 2 0 C3.69048001 2.99035344 4.33165232 5.40402978 4.6328125 8.81640625 C4.71660156 9.74646484 4.80039062 10.67652344 4.88671875 11.63476562 C4.96535156 12.60091797 5.04398437 13.56707031 5.125 14.5625 C5.21136719 15.50158203 5.29773438 16.44066406 5.38671875 17.40820312 C5.9526036 23.95180814 6.10078128 30.43401964 6 37 C5.34 37 4.68 37 4 37 C3.08629478 31.67942422 2.98193735 26.6969629 3.125 21.3125 C3.24230509 13.81269175 2.36221321 7.1710044 0 0 Z " fill="#EDD982" transform="translate(330,124)"/>
<path d="M0 0 C0.33 0 0.66 0 1 0 C1.08837761 3.62484173 1.14084706 7.24940017 1.1875 10.875 C1.21263672 11.88820312 1.23777344 12.90140625 1.26367188 13.9453125 C1.35587849 23.53480006 -1.05254585 31.35319568 -5 40 C-6.50154136 36.1035952 -5.42805244 33.4802379 -4.125 29.625 C-1.70908121 22.4110327 -0.82760606 15.671314 -0.4375 8.125 C-0.39431641 7.34125 -0.35113281 6.5575 -0.30664062 5.75 C-0.20146649 3.83349351 -0.10032075 1.91676667 0 0 Z " fill="#6A2443" transform="translate(321,233)"/>
<path d="M0 0 C3.69876091 1.37287342 6.9514476 3.06355453 10.3125 5.125 C11.19550781 5.66382813 12.07851562 6.20265625 12.98828125 6.7578125 C13.65214844 7.16773438 14.31601563 7.57765625 15 8 C11.2735915 9.04702186 7.86986958 9.07442057 4 9 C4 8.01 4 7.02 4 6 C3.01 6 2.02 6 1 6 C0.67 4.02 0.34 2.04 0 0 Z " fill="#F2DE67" transform="translate(154,326)"/>
<path d="M0 0 C0.33 0.66 0.66 1.32 1 2 C2.32 2.33 3.64 2.66 5 3 C5 6.63 5 10.26 5 14 C4.01 14.495 4.01 14.495 3 15 C-1.22323462 5.58997722 -1.22323462 5.58997722 -3 1 C-2.01 0.67 -1.02 0.34 0 0 Z " fill="#ECD963" transform="translate(157,110)"/>
<path d="M0 0 C0.99 0 1.98 0 3 0 C3.33 1.98 3.66 3.96 4 6 C3.01 6.495 3.01 6.495 2 7 C1.71125 7.66 1.4225 8.32 1.125 9 C0 11 0 11 -2.125 11.75 C-3.053125 11.87375 -3.053125 11.87375 -4 12 C-4.75 10.3125 -4.75 10.3125 -5 8 C-3.125 5.4375 -3.125 5.4375 -1 3 C-0.67 2.01 -0.34 1.02 0 0 Z " fill="#070508" transform="translate(319,271)"/>
<path d="M0 0 C0.66 0.33 1.32 0.66 2 1 C2.625 3.5625 2.625 3.5625 3 6 C2.401875 6.226875 1.80375 6.45375 1.1875 6.6875 C-1.56351888 8.33811133 -2.52484637 10.1972081 -4 13 C-4.99 12.67 -5.98 12.34 -7 12 C-7 10.35 -7 8.7 -7 7 C-6.34 7 -5.68 7 -5 7 C-4.731875 6.401875 -4.46375 5.80375 -4.1875 5.1875 C-3.01506533 3.02775192 -1.80630718 1.64209744 0 0 Z " fill="#060507" transform="translate(82,106)"/>
<path d="M0 0 C9 10.66666667 9 10.66666667 9 16 C9.66 16 10.32 16 11 16 C11.99 17.98 12.98 19.96 14 22 C13.34 22 12.68 22 12 22 C12 21.34 12 20.68 12 20 C11.34 20 10.68 20 10 20 C10 19.01 10 18.02 10 17 C9.34 17 8.68 17 8 17 C6 14 6 14 6 11 C5.38125 10.938125 4.7625 10.87625 4.125 10.8125 C2 10 2 10 0.75 7.75 C0.00546511 5.02003872 -0.1607411 2.81296916 0 0 Z " fill="#260416" transform="translate(115,268)"/>
<path d="M0 0 C0.66 0.33 1.32 0.66 2 1 C2.4140625 3.28515625 2.4140625 3.28515625 2.625 6.0625 C2.69976562 6.98160156 2.77453125 7.90070313 2.8515625 8.84765625 C2.90054688 9.55792969 2.94953125 10.26820313 3 11 C0.69 11.33 -1.62 11.66 -4 12 C-4 13.65 -4 15.3 -4 17 C-4.33 17 -4.66 17 -5 17 C-5.8125 13.75 -5.8125 13.75 -6 10 C-3.625 7.9375 -3.625 7.9375 -1 6 C-0.11406002 2.86136296 -0.11406002 2.86136296 0 0 Z " fill="#13130C" transform="translate(76,155)"/>
<path d="M0 0 C2.02045442 0.60183749 4.02111039 1.27306096 6 2 C6.33 2.66 6.66 3.32 7 4 C6.0625 6.125 6.0625 6.125 5 8 C2.69 7.67 0.38 7.34 -2 7 C-2.33 5.35 -2.66 3.7 -3 2 C-2.01 2 -1.02 2 0 2 C0 1.34 0 0.68 0 0 Z " fill="#060707" transform="translate(115,88)"/>
<path d="M0 0 C0.66 0.33 1.32 0.66 2 1 C-0.97 6.28 -3.94 11.56 -7 17 C-8 13 -8 13 -8 10 C-8.66 9.01 -9.32 8.02 -10 7 C-7 6 -7 6 -5 6 C-1.9890638 3.9927092 -1.36983503 3.16115776 0 0 Z " fill="#1A1608" transform="translate(321,277)"/>
<path d="M0 0 C0.33 0 0.66 0 1 0 C0.59200675 8.02386726 -1.91036813 14.62364642 -5 22 C-7 20 -7 20 -7.25 16.5 C-7 13 -7 13 -5 11 C-4.67 11.66 -4.34 12.32 -4 13 C-2.68 8.71 -1.36 4.42 0 0 Z " fill="#1C1404" transform="translate(329,254)"/>
<path d="M0 0 C0.08564209 0.57967529 0.17128418 1.15935059 0.25952148 1.7565918 C0.65087717 4.40042275 1.04417081 7.04396196 1.4375 9.6875 C1.57220703 10.59951172 1.70691406 11.51152344 1.84570312 12.45117188 C1.97783203 13.33740234 2.10996094 14.22363281 2.24609375 15.13671875 C2.36654053 15.94842529 2.4869873 16.76013184 2.61108398 17.59643555 C3.01276092 20.07886456 3.49212777 22.53729879 4 25 C0.50191383 22.66794255 0.27691443 21.26438378 -0.59765625 17.2890625 C-1.13677055 14.22186853 -1.48102566 11.15343157 -1.78125 8.0546875 C-2.03559029 5.66570551 -2.47099394 3.34274111 -3 1 C-1 0 -1 0 0 0 Z " fill="#1A020C" transform="translate(100,217)"/>
<path d="M0 0 C3.375 0.5625 3.375 0.5625 7 2 C8.3125 5.5625 8.3125 5.5625 9 9 C9.66 9.33 10.32 9.66 11 10 C11.6328125 11.84765625 11.6328125 11.84765625 12.125 14.0625 C12.29257812 14.79597656 12.46015625 15.52945313 12.6328125 16.28515625 C12.75398438 16.85105469 12.87515625 17.41695312 13 18 C12.34 18 11.68 18 11 18 C9.79939985 16.17248549 8.68927699 14.28512159 7.625 12.375 C5.22060344 8.12840398 2.78244021 4.0067139 0 0 Z " fill="#E3D271" transform="translate(318,105)"/>
<path d="M0 0 C5.10222952 -0.36216243 8.68625816 -0.12908706 12.66796875 3.29296875 C14.88738253 5.79466091 16.99143715 8.32676781 19 11 C18.67 11.66 18.34 12.32 18 13 C17.3709375 12.46890625 16.741875 11.9378125 16.09375 11.390625 C10.93500354 7.13310533 6.11453499 3.71757111 0 1 C0 0.67 0 0.34 0 0 Z " fill="#E1D170" transform="translate(299,92)"/>
<path d="M0 0 C1.85625 0.061875 1.85625 0.061875 3.75 0.125 C1.43145521 3.39287021 -1.34990129 3.75519428 -5.15234375 4.40625 C-5.88582031 4.5196875 -6.61929687 4.633125 -7.375 4.75 C-12.20328453 5.14002601 -12.20328453 5.14002601 -16.25 7.125 C-18.24958364 7.16580783 -20.25045254 7.16754356 -22.25 7.125 C-19.74959426 4.03527304 -17.68145788 3.60320917 -13.8125 3.0625 C-9.85480507 2.50921367 -9.85480507 2.50921367 -6.16796875 1.07421875 C-3.93738035 -0.02971807 -2.46916889 -0.08230563 0 0 Z " fill="#F5E065" transform="translate(263.25,351.875)"/>
<path d="M0 0 C0.33 0 0.66 0 1 0 C1.04254356 1.99954746 1.04080783 4.00041636 1 6 C0.67 6.33 0.34 6.66 0 7 C-0.49776816 10.03186062 -0.90103589 13.07145266 -1.3046875 16.1171875 C-2.02243846 19.09303135 -2.6310278 20.14883593 -5 22 C-5.29105568 16.40445447 -4.37632274 12.22999426 -2.5 7.0625 C-2.26152344 6.37865234 -2.02304688 5.69480469 -1.77734375 4.99023438 C-1.19454118 3.32341903 -0.59862949 1.66119684 0 0 Z " fill="#251F0A" transform="translate(74,113)"/>
<path d="M0 0 C0 0.99 0 1.98 0 3 C-10.03411669 3.17707265 -19.99112106 2.62277469 -30 2 C-30 1.67 -30 1.34 -30 1 C-26.1250877 0.83125237 -22.25005773 0.66537155 -18.375 0.5 C-16.73337891 0.42845703 -16.73337891 0.42845703 -15.05859375 0.35546875 C-13.99511719 0.31035156 -12.93164062 0.26523437 -11.8359375 0.21875 C-10.86188965 0.17685547 -9.8878418 0.13496094 -8.88427734 0.09179688 C-5.9208325 -0.00251964 -2.96473674 -0.01538125 0 0 Z " fill="#D0C063" transform="translate(232,341)"/>
<path d="M0 0 C0.66 0 1.32 0 2 0 C2.31453125 0.845625 2.6290625 1.69125 2.953125 2.5625 C5.80007417 10.16301644 5.80007417 10.16301644 9.25 17.5 C10.73696347 20.47392693 11.59170698 22.73365588 12 26 C9.45126418 23.72102256 8.13646721 21.54499557 6.73828125 18.4375 C6.34189453 17.55835938 5.94550781 16.67921875 5.53710938 15.7734375 C5.13298828 14.85820312 4.72886719 13.94296875 4.3125 13 C3.89677734 12.08476562 3.48105469 11.16953125 3.05273438 10.2265625 C0 3.38923953 0 3.38923953 0 0 Z " fill="#EFE08B" transform="translate(57,246)"/>
<path d="M0 0 C0.66 0.33 1.32 0.66 2 1 C1.41992188 1.64066406 0.83984375 2.28132813 0.2421875 2.94140625 C-4.24094975 7.90540806 -8.67445028 12.89806956 -13 18 C-13.33 17.34 -13.66 16.68 -14 16 C-13.0625 13.375 -13.0625 13.375 -12 11 C-11.01 11 -10.02 11 -9 11 C-8.773125 10.443125 -8.54625 9.88625 -8.3125 9.3125 C-6.63575448 6.35823409 -4.45423315 4.33152149 -2 2 C-1.34 1.34 -0.68 0.68 0 0 Z " fill="#EBDC7A" transform="translate(356,293)"/>
<path d="M0 0 C-0.56847656 0.3403125 -1.13695313 0.680625 -1.72265625 1.03125 C-7.50743289 4.66242866 -11.77438868 8.64665318 -16 14 C-17.125 10.25 -17.125 10.25 -16 8 C-15.01 8 -14.02 8 -13 8 C-13 7.34 -13 6.68 -13 6 C-12.34 6 -11.68 6 -11 6 C-11 5.34 -11 4.68 -11 4 C-10.34 4 -9.68 4 -9 4 C-8.67 2.68 -8.34 1.36 -8 0 C-4.71303767 -0.79953138 -3.28976808 -1.09658936 0 0 Z " fill="#E0D26C" transform="translate(95,92)"/>
<path d="M0 0 C0.99 0.33 1.98 0.66 3 1 C3 1.66 3 2.32 3 3 C3.99 3.33 4.98 3.66 6 4 C7.1875 6.5625 7.1875 6.5625 8 9 C6.02 9 4.04 9 2 9 C1.67 8.01 1.34 7.02 1 6 C0.01 5.67 -0.98 5.34 -2 5 C-1.34 3.35 -0.68 1.7 0 0 Z " fill="#080405" transform="translate(142,307)"/>
<path d="M0 0 C0.33 0.99 0.66 1.98 1 3 C-4.445 6.96 -4.445 6.96 -10 11 C-10.66 10.34 -11.32 9.68 -12 9 C-11.01 8.67 -10.02 8.34 -9 8 C-8.26676204 5.98491642 -8.26676204 5.98491642 -8 4 C-7.34 4 -6.68 4 -6 4 C-6 3.34 -6 2.68 -6 2 C-4.02 2 -2.04 2 0 2 C0 1.34 0 0.68 0 0 Z " fill="#E5BACE" transform="translate(292,302)"/>
<path d="M0 0 C12.41394996 4.13798332 12.41394996 4.13798332 14.75 7.9375 C15.19859375 8.64777344 15.6471875 9.35804687 16.109375 10.08984375 C16.55023438 11.03537109 16.55023438 11.03537109 17 12 C16.67 12.66 16.34 13.32 16 14 C15.26394531 13.31292969 14.52789062 12.62585938 13.76953125 11.91796875 C12.78406429 11.00758499 11.79837538 10.09744146 10.8125 9.1875 C9.84957031 8.29417969 8.88664063 7.40085937 7.89453125 6.48046875 C5.35373451 4.30313281 2.88139884 2.66984174 0 1 C0 0.67 0 0.34 0 0 Z " fill="#F0DF72" transform="translate(134,92)"/>
<path d="M0 0 C0.66 0 1.32 0 2 0 C2.33 7.26 2.66 14.52 3 22 C-0.30171338 17.04742993 -0.11722879 12.54348007 -0.0625 6.6875 C-0.05347656 5.43324219 -0.04445313 4.17898437 -0.03515625 2.88671875 C-0.01775391 1.45779297 -0.01775391 1.45779297 0 0 Z " fill="#6B2443" transform="translate(101,218)"/>
<path d="M0 0 C0.33 0 0.66 0 1 0 C1.15490223 5.73138244 0.65244885 10.89349206 -0.5 16.5 C-0.64308594 17.22703125 -0.78617188 17.9540625 -0.93359375 18.703125 C-1.28233698 20.47009071 -1.64019723 22.23525309 -2 24 C-2.66 23.67 -3.32 23.34 -4 23 C-3.71638858 20.29060578 -3.4233895 17.58277339 -3.125 14.875 C-3.04636719 14.11445313 -2.96773437 13.35390625 -2.88671875 12.5703125 C-2.39026335 8.14040279 -1.59599921 4.19788029 0 0 Z " fill="#231B05" transform="translate(163,150)"/>
<path d="M0 0 C0.33 0 0.66 0 1 0 C1.55969677 3.62245715 2.09467782 7.24813559 2.625 10.875 C2.78484375 11.90753906 2.9446875 12.94007813 3.109375 14.00390625 C3.25117187 14.99003906 3.39296875 15.97617188 3.5390625 16.9921875 C3.67521973 17.90339355 3.81137695 18.81459961 3.95166016 19.75341797 C3.9676123 20.49479004 3.98356445 21.23616211 4 22 C3.34 22.66 2.68 23.32 2 24 C-0.07422976 15.96235969 -0.2144997 8.27015524 0 0 Z " fill="#E1D36B" transform="translate(67,147)"/>
<path d="M0 0 C0.99 0 1.98 0 3 0 C3.28875 0.78375 3.5775 1.5675 3.875 2.375 C4.84912254 5.09671632 4.84912254 5.09671632 7 7 C7 7.99 7 8.98 7 10 C7.99 10.33 8.98 10.66 10 11 C10 12.65 10 14.3 10 16 C7.00123678 13.19680829 4.83677273 10.40565083 2.75 6.875 C2.22921875 6.00617188 1.7084375 5.13734375 1.171875 4.2421875 C0 2 0 2 0 0 Z " fill="#EDDE75" transform="translate(69,272)"/>
<path d="M0 0 C7.92 0 15.84 0 24 0 C23 2 23 2 21.01953125 2.68359375 C16.81393343 3.12428382 12.86819481 2.59374851 8.6875 2.0625 C7.85154297 1.96259766 7.01558594 1.86269531 6.15429688 1.75976562 C4.10201477 1.51349177 2.05087981 1.25769102 0 1 C0 0.67 0 0.34 0 0 Z " fill="#EFDD80" transform="translate(193,359)"/>
<path d="M0 0 C0.99 0 1.98 0 3 0 C3.66 1.65 4.32 3.3 5 5 C5.99 5 6.98 5 8 5 C8 5.66 8 6.32 8 7 C8.598125 7.061875 9.19625 7.12375 9.8125 7.1875 C12.91373958 8.33938899 13.64108103 10.06759592 15 13 C14.67 13.66 14.34 14.32 14 15 C3.25740319 5.77448747 3.25740319 5.77448747 0 0 Z " fill="#EFE085" transform="translate(88,301)"/>
<path d="M0 0 C0.99 0 1.98 0 3 0 C1.58220053 3.87249706 -0.22984788 7.20748064 -2.4375 10.6875 C-3.33275391 12.11642578 -3.33275391 12.11642578 -4.24609375 13.57421875 C-6 16 -6 16 -9 18 C-9.33 17.01 -9.66 16.02 -10 15 C-6.25 11.125 -6.25 11.125 -4 10 C-3.27306096 8.02111039 -2.60183749 6.02045442 -2 4 C-1.34 4 -0.68 4 0 4 C0 2.68 0 1.36 0 0 Z " fill="#EADD72" transform="translate(367,274)"/>
<path d="M0 0 C0.33 0 0.66 0 1 0 C1.1875 3.3125 1.1875 3.3125 1 7 C0.0334921 8.03240616 -0.97075097 9.03013072 -2 10 C-3.19599068 12.03232242 -3.19599068 12.03232242 -4.1875 14.1875 C-4.53167969 14.90292969 -4.87585937 15.61835937 -5.23046875 16.35546875 C-5.48441406 16.89816406 -5.73835938 17.44085938 -6 18 C-6.66 17.67 -7.32 17.34 -8 17 C-5.36 11.39 -2.72 5.78 0 0 Z " fill="#ECDD74" transform="translate(68,104)"/>
<path d="M0 0 C3 1 3 1 4 3 C-0.29 5.64 -4.58 8.28 -9 11 C-9.66 10.34 -10.32 9.68 -11 9 C-6.375 6 -6.375 6 -3 6 C-3 5.01 -3 4.02 -3 3 C-2.34 3 -1.68 3 -1 3 C-0.67 2.01 -0.34 1.02 0 0 Z " fill="#1D1705" transform="translate(286,315)"/>
<path d="M0 0 C2 0 2 0 4 1.75 C5.86249538 3.8453073 7.09285907 5.36104456 8 8 C7.625 10.25 7.625 10.25 7 12 C4.0843836 8.45960866 1.49872182 4.8373228 -1 1 C-0.67 0.67 -0.34 0.34 0 0 Z M4 0 C4.99 1.485 4.99 1.485 6 3 C5.34 3 4.68 3 4 3 C4 2.01 4 1.02 4 0 Z " fill="#84294E" transform="translate(286,290)"/>
<path d="M0 0 C1.32 0.33 2.64 0.66 4 1 C1.36 3.97 -1.28 6.94 -4 10 C-4.66 8.68 -5.32 7.36 -6 6 C-5.34 5.34 -4.68 4.68 -4 4 C-3.38125 3.278125 -2.7625 2.55625 -2.125 1.8125 C-1.42375 1.214375 -0.7225 0.61625 0 0 Z " fill="#1A1604" transform="translate(306,298)"/>
<path d="M0 0 C0.66 0.33 1.32 0.66 2 1 C2 1.99 2 2.98 2 4 C1.34 4 0.68 4 0 4 C-0.66 7.63 -1.32 11.26 -2 15 C-3.65 15.33 -5.3 15.66 -7 16 C-4.69 10.72 -2.38 5.44 0 0 Z " fill="#DECF6F" transform="translate(326,269)"/>
<path d="M0 0 C1.80030122 2.70045182 2.93377066 5.06677881 4.125 8.0625 C4.47820312 8.94035156 4.83140625 9.81820312 5.1953125 10.72265625 C6 13 6 13 6 15 C5.01 15 4.02 15 3 15 C0.74315457 9.63999211 -0.36263859 5.8022175 0 0 Z " fill="#220411" transform="translate(104,243)"/>
<path d="M0 0 C6.78082192 5.42465753 6.78082192 5.42465753 9 9 C9 9.66 9 10.32 9 11 C8.01 11 7.02 11 6 11 C5.67 9.68 5.34 8.36 5 7 C3.68 7.33 2.36 7.66 1 8 C0.67 5.36 0.34 2.72 0 0 Z " fill="#1A050E" transform="translate(129,290)"/>
<path d="M0 0 C6.19240462 0.68804496 12.01955594 2.28048715 18 4 C16.453125 5.1171875 16.453125 5.1171875 14 6 C10.546875 5.3203125 10.546875 5.3203125 6.75 4.125 C6.1003125 3.92519531 5.450625 3.72539062 4.78125 3.51953125 C3.18340837 3.02608016 1.59110197 2.51476828 0 2 C0 1.34 0 0.68 0 0 Z " fill="#E6D378" transform="translate(167,335)"/>
<path d="M0 0 C3.40312738 1.05875074 6.01353231 2.00902154 9 4 C9 4.66 9 5.32 9 6 C10.423125 6.1546875 10.423125 6.1546875 11.875 6.3125 C15 7 15 7 17 10 C10.33689395 8.24168035 5.1279353 5.6668403 0 1 C0 0.67 0 0.34 0 0 Z " fill="#5E223C" transform="translate(162,319)"/>
<path d="M0 0 C1.65 0 3.3 0 5 0 C4.67 3.3 4.34 6.6 4 10 C1.74754119 7.31158141 0.11786042 5.35358125 -1 2 C-0.67 1.34 -0.34 0.68 0 0 Z " fill="#101013" transform="translate(74,123)"/>
<path d="M0 0 C0.66 0.33 1.32 0.66 2 1 C-2.18461538 7.64615385 -2.18461538 7.64615385 -6.3125 9.4375 C-7.6428125 9.7159375 -7.6428125 9.7159375 -9 10 C-7.63842622 4.70499087 -4.39656045 2.76254467 0 0 Z " fill="#1E1907" transform="translate(248,97)"/>
<path d="M0 0 C1.15242188 0.00902344 2.30484375 0.01804687 3.4921875 0.02734375 C4.36101562 0.03894531 5.22984375 0.05054687 6.125 0.0625 C6.125 0.3925 6.125 0.7225 6.125 1.0625 C4.91263672 1.13597656 4.91263672 1.13597656 3.67578125 1.2109375 C2.60714844 1.28570312 1.53851563 1.36046875 0.4375 1.4375 C-0.61824219 1.50710937 -1.67398437 1.57671875 -2.76171875 1.6484375 C-5.79260566 2.05154166 -8.06329753 2.92262062 -10.875 4.0625 C-14.1875 3.6875 -14.1875 3.6875 -16.875 3.0625 C-11.55785587 -0.00508315 -6.01619188 -0.06138971 0 0 Z " fill="#443C18" transform="translate(278.875,87.9375)"/>
<path d="M0 0 C0.66 0 1.32 0 2 0 C2.33 0.99 2.66 1.98 3 3 C3.66 3.33 4.32 3.66 5 4 C6.10546875 6.1796875 6.10546875 6.1796875 7.1875 8.875 C7.55230469 9.75929688 7.91710937 10.64359375 8.29296875 11.5546875 C9 14 9 14 8 17 C6.66161267 14.54429825 5.32913768 12.08570084 4 9.625 C3.6184375 8.92632812 3.236875 8.22765625 2.84375 7.5078125 C0 2.2265625 0 2.2265625 0 0 Z " fill="#662140" transform="translate(111,258)"/>
<path d="M0 0 C3.71802894 5.5770434 6.70405924 11.13542244 6 18 C3.43461521 15.43461521 2.62642121 12.93954104 1.3125 9.5625 C0.85488281 8.40878906 0.39726563 7.25507813 -0.07421875 6.06640625 C-1 3 -1 3 0 0 Z " fill="#6A2140" transform="translate(105,240)"/>
<path d="M0 0 C0.99 0.33 1.98 0.66 3 1 C0.4135416 3.5864584 -2.2938548 4.62271883 -5.625 6.125 C-6.81351563 6.66382812 -8.00203125 7.20265625 -9.2265625 7.7578125 C-10.14179688 8.16773437 -11.05703125 8.57765625 -12 9 C-12.33 8.01 -12.66 7.02 -13 6 C-11.58774074 5.32404685 -10.16997095 4.65959941 -8.75 4 C-7.96109375 3.62875 -7.1721875 3.2575 -6.359375 2.875 C-4 2 -4 2 0 2 C0 1.34 0 0.68 0 0 Z " fill="#E0D375" transform="translate(259,89)"/>
<path d="M0 0 C0.66 0.33 1.32 0.66 2 1 C2.4140625 3.28515625 2.4140625 3.28515625 2.625 6.0625 C2.69976562 6.98160156 2.77453125 7.90070313 2.8515625 8.84765625 C2.90054688 9.55792969 2.94953125 10.26820313 3 11 C0.5 8.75 0.5 8.75 -2 6 C-2 4.68 -2 3.36 -2 2 C-1.34 2 -0.68 2 0 2 C0 1.34 0 0.68 0 0 Z " fill="#070505" transform="translate(113,267)"/>
<path d="M0 0 C-1.04874998 2.62187494 -1.64931313 3.79371361 -4.125 5.25 C-4.74375 5.4975 -5.3625 5.745 -6 6 C-6.66 4.35 -7.32 2.7 -8 1 C-4.93251126 -0.86240388 -3.40254489 -1.2151946 0 0 Z " fill="#030603" transform="translate(272,92)"/>
<path d="M0 0 C0 0.66 0 1.32 0 2 C-0.969375 2.45375 -1.93875 2.9075 -2.9375 3.375 C-6.07079582 4.65786221 -6.07079582 4.65786221 -7 7 C-9.06640625 7.4140625 -9.06640625 7.4140625 -11.5625 7.625 C-12.38878906 7.69976562 -13.21507812 7.77453125 -14.06640625 7.8515625 C-15.02353516 7.92503906 -15.02353516 7.92503906 -16 8 C-13.10414095 5.70351643 -10.1827969 3.95652443 -6.875 2.3125 C-5.57175781 1.65701172 -5.57175781 1.65701172 -4.2421875 0.98828125 C-2 0 -2 0 0 0 Z " fill="#DBCD71" transform="translate(284,322)"/>
<path d="M0 0 C4.42091465 0.49121274 5.96588491 1.87106881 9 5 C11.63222962 6.25436187 11.63222962 6.25436187 14 7 C14 7.99 14 8.98 14 10 C9.52468445 8.59347226 7.23728294 6.3202902 4 3 C1.83379456 1.70480005 1.83379456 1.70480005 0 1 C0 0.67 0 0.34 0 0 Z " fill="#64203F" transform="translate(148,309)"/>
<path d="M0 0 C0.33 0.99 0.66 1.98 1 3 C1.99 3 2.98 3 4 3 C4 3.66 4 4.32 4 5 C4.99 5.33 5.98 5.66 7 6 C8.25 7.875 8.25 7.875 9 10 C8.67 10.99 8.34 11.98 8 13 C5.03 9.37 2.06 5.74 -1 2 C-0.67 1.34 -0.34 0.68 0 0 Z " fill="#6C2045" transform="translate(128,285)"/>
<path d="M0 0 C1.4606285 2.64738916 2 3.89448334 2 7 C4.64 7 7.28 7 10 7 C10 7.66 10 8.32 10 9 C2.66165414 9.36090226 2.66165414 9.36090226 -0.0625 7.875 C-1.46771358 5.06457284 -0.72549141 2.96791942 0 0 Z " fill="#E7D562" transform="translate(226,170)"/>
<path d="M0 0 C0.33 0.99 0.66 1.98 1 3 C1.66 3.33 2.32 3.66 3 4 C2.38245741 5.31602523 1.75571258 6.62773556 1.125 7.9375 C0.77695313 8.66839844 0.42890625 9.39929688 0.0703125 10.15234375 C-1 12 -1 12 -3 13 C-2.52060632 8.28596212 -2.03165952 4.33420699 0 0 Z " fill="#1F1605" transform="translate(228,121)"/>
<path d="M0 0 C5.96652354 1.57013777 10.82909025 4.75029782 16 8 C15.01 8.495 15.01 8.495 14 9 C13.01 8.67 12.02 8.34 11 8 C11 7.34 11 6.68 11 6 C7.37 5.01 3.74 4.02 0 3 C0 2.01 0 1.02 0 0 Z " fill="#E5D872" transform="translate(299,35)"/>
<path d="M0 0 C13.6332574 -0.3690205 13.6332574 -0.3690205 20 2 C18.375 3.125 18.375 3.125 16 4 C13.98608051 3.37664397 11.98867713 2.69971973 10 2 C6.67612675 1.53724519 3.34595192 1.25127702 0 1 C0 0.67 0 0.34 0 0 Z " fill="#392F0C" transform="translate(107,87)"/>
<path d="M0 0 C0.66 0.33 1.32 0.66 2 1 C0.8553125 1.8971875 0.8553125 1.8971875 -0.3125 2.8125 C-2.91965024 4.93459903 -5.20770342 7.0636495 -7.375 9.625 C-9.48059676 11.4066588 -11.30492384 11.63580052 -14 12 C-9.73412126 7.45890328 -4.96387672 3.75264754 0 0 Z " fill="#EBDF7B" transform="translate(120,46)"/>
<path d="M0 0 C2.04190981 0.14238837 4.08352045 0.28907028 6.125 0.4375 C7.83042969 0.55931641 7.83042969 0.55931641 9.5703125 0.68359375 C12.7540478 0.97730965 15.85510907 1.43124313 19 2 C19 2.33 19 2.66 19 3 C16.77110504 3.05428973 14.54182529 3.09292338 12.3125 3.125 C10.45044922 3.15980469 10.45044922 3.15980469 8.55078125 3.1953125 C5.18762143 3.01032021 3.0014413 2.45767895 0 1 C0 0.67 0 0.34 0 0 Z " fill="#EEDC85" transform="translate(236,16)"/>
<path d="M0 0 C0.66 0.33 1.32 0.66 2 1 C2 3.64 2 6.28 2 9 C-0.64 8.01 -3.28 7.02 -6 6 C-6 5.67 -6 5.34 -6 5 C-4.35 5 -2.7 5 -1 5 C-0.67 3.35 -0.34 1.7 0 0 Z " fill="#7C264A" transform="translate(177,319)"/>
<path d="M0 0 C0.66 0.99 1.32 1.98 2 3 C1.01 4.98 0.02 6.96 -1 9 C-2.89213369 6.61426621 -4.02391783 4.92824652 -5 2 C-3.35 1.34 -1.7 0.68 0 0 Z " fill="#0D0F10" transform="translate(326,124)"/>
<path d="M0 0 C3.99500618 1.3697164 6.80009492 3.25722422 10 6 C6.7 6 3.4 6 0 6 C0 4.02 0 2.04 0 0 Z " fill="#EBD56A" transform="translate(159,329)"/>
<path d="M0 0 C2.05078125 0.03255208 4.1015625 0.06510417 6.15234375 0.09765625 C6.48234375 0.75765625 6.81234375 1.41765625 7.15234375 2.09765625 C1.10404889 2.99369993 -4.73711385 3.21035068 -10.84765625 3.09765625 C-10.84765625 2.76765625 -10.84765625 2.43765625 -10.84765625 2.09765625 C-8.796875 1.86979167 -6.74609375 1.64192708 -4.6953125 1.4140625 C-2.51789177 1.04118495 -2.21147387 0.11688551 0 0 Z " fill="#D0B0C0" transform="translate(224.84765625,330.90234375)"/>
<path d="M0 0 C0 0.99 0 1.98 0 3 C-2.31 3.33 -4.62 3.66 -7 4 C-7 4.66 -7 5.32 -7 6 C-8.65 6.33 -10.3 6.66 -12 7 C-12 6.01 -12 5.02 -12 4 C-8.04 2.68 -4.08 1.36 0 0 Z " fill="#23121D" transform="translate(256,325)"/>
<path d="M0 0 C4.35819034 0.48424337 6.12591341 1.74270186 9 5 C9.5775 5.5775 10.155 6.155 10.75 6.75 C11.1625 7.1625 11.575 7.575 12 8 C6.49984036 6.81369106 3.75510915 5.43785627 0 1 C0 0.67 0 0.34 0 0 Z " fill="#EBDF71" transform="translate(116,325)"/>
<path d="M0 0 C0.33 0.66 0.66 1.32 1 2 C-4 7 -4 7 -5.9453125 7.1953125 C-7.96354167 7.13020833 -9.98177083 7.06510417 -12 7 C-9.76425178 4.76425178 -7.71033371 3.75631642 -4.875 2.375 C-3.96492188 1.92898438 -3.05484375 1.48296875 -2.1171875 1.0234375 C-1.06917969 0.51683594 -1.06917969 0.51683594 0 0 Z " fill="#25141F" transform="translate(277,315)"/>
<path d="M0 0 C0.66 0 1.32 0 2 0 C2.67154933 1.28913487 3.33708859 2.58140204 4 3.875 C4.37125 4.59429687 4.7425 5.31359375 5.125 6.0546875 C6 8 6 8 6 10 C6.66 10 7.32 10 8 10 C7.34 11.32 6.68 12.64 6 14 C4.99770632 11.85521084 3.99807145 9.70925278 3 7.5625 C2.1646875 5.77005859 2.1646875 5.77005859 1.3125 3.94140625 C0 1 0 1 0 0 Z " fill="#221704" transform="translate(100,255)"/>
<path d="M0 0 C1.72274487 2.58411731 2.68895522 4.54902656 3.6875 7.4375 C3.95949219 8.19933594 4.23148437 8.96117187 4.51171875 9.74609375 C5.04729142 12.21829721 4.80445309 13.62983284 4 16 C3.80664062 15.45730469 3.61328125 14.91460937 3.4140625 14.35546875 C3.15367187 13.64003906 2.89328125 12.92460937 2.625 12.1875 C2.36976563 11.47980469 2.11453125 10.77210938 1.8515625 10.04296875 C0.9734231 7.75226641 0.9734231 7.75226641 -1 5 C-0.625 2.3125 -0.625 2.3125 0 0 Z " fill="#EADE83" transform="translate(381,126)"/>
<path d="M0 0 C6.57142857 5.14285714 6.57142857 5.14285714 8 9 C5.69 8.34 3.38 7.68 1 7 C0.67 4.69 0.34 2.38 0 0 Z " fill="#171002" transform="translate(314,102)"/>
<path d="M0 0 C-0.99 1.485 -0.99 1.485 -2 3 C-1.67 3.66 -1.34 4.32 -1 5 C-3.97 4.505 -3.97 4.505 -7 4 C-7.33 3.01 -7.66 2.02 -8 1 C-3.375 -1.125 -3.375 -1.125 0 0 Z " fill="#170E12" transform="translate(266,323)"/>
<path d="M0 0 C0.33 0.99 0.66 1.98 1 3 C-0.9375 6.1875 -0.9375 6.1875 -3 9 C-4.32 8.67 -5.64 8.34 -7 8 C-4.69 5.36 -2.38 2.72 0 0 Z " fill="#20030F" transform="translate(304,292)"/>
<path d="M0 0 C2.8125 0.0625 2.8125 0.0625 6 1 C7.75 4.375 7.75 4.375 9 8 C9.99 9.485 9.99 9.485 11 11 C6.43250373 9.13916819 3.11420254 5.96311877 0.6875 1.6875 C0.460625 1.130625 0.23375 0.57375 0 0 Z " fill="#611E3C" transform="translate(137,298)"/>
<path d="M0 0 C0.66 0.33 1.32 0.66 2 1 C2.125 8.75 2.125 8.75 1 11 C0.01 11 -0.98 11 -2 11 C-1.34 7.37 -0.68 3.74 0 0 Z " fill="#E2D369" transform="translate(332,162)"/>
<path d="M0 0 C0.99386719 0.00902344 1.98773438 0.01804687 3.01171875 0.02734375 C4.15060547 0.04474609 4.15060547 0.04474609 5.3125 0.0625 C5.3125 0.3925 5.3125 0.7225 5.3125 1.0625 C2.0125 1.3925 -1.2875 1.7225 -4.6875 2.0625 C-3.6975 2.7225 -2.7075 3.3825 -1.6875 4.0625 C-4.3275 4.0625 -6.9675 4.0625 -9.6875 4.0625 C-9.3575 3.0725 -9.0275 2.0825 -8.6875 1.0625 C-5.53819107 0.01273036 -3.29935544 -0.03881595 0 0 Z " fill="#F9E894" transform="translate(226.6875,357.9375)"/>
<path d="M0 0 C-3.20336822 2.83374881 -5.78087253 3.5205537 -10 4 C-10.33 3.01 -10.66 2.02 -11 1 C-7.32589215 -0.17571451 -3.83070817 -0.07366746 0 0 Z " fill="#F1E178" transform="translate(288,347)"/>
<path d="M0 0 C1.60031344 3.20062687 0.03173691 5.72271806 -1 9 C-2.65 9.33 -4.3 9.66 -6 10 C-4.02 6.7 -2.04 3.4 0 0 Z " fill="#E8D572" transform="translate(318,286)"/>
<path d="M0 0 C1.98 0.495 1.98 0.495 4 1 C3.38722388 3.96175123 2.74627478 5.38058783 1 8 C0.34 8 -0.32 8 -1 8 C-0.67 5.36 -0.34 2.72 0 0 Z " fill="#F2DE66" transform="translate(52,144)"/>
<path d="M0 0 C0.98484375 0.01804687 1.9696875 0.03609375 2.984375 0.0546875 C4.10585937 0.08949219 4.10585937 0.08949219 5.25 0.125 C5.25 1.115 5.25 2.105 5.25 3.125 C0.3 2.795 -4.65 2.465 -9.75 2.125 C-5.76219998 0.13109999 -4.27852428 -0.10186963 0 0 Z " fill="#180F05" transform="translate(194.75,337.875)"/>
<path d="M0 0 C0.99 0.33 1.98 0.66 3 1 C2.01 1.495 2.01 1.495 1 2 C1.33 2.99 1.66 3.98 2 5 C0.02 5.99 0.02 5.99 -2 7 C-2.66 5.68 -3.32 4.36 -4 3 C-2.1875 1.4375 -2.1875 1.4375 0 0 Z " fill="#140A10" transform="translate(286,309)"/>
<path d="M0 0 C0.99 0 1.98 0 3 0 C7.06153846 6.4 7.06153846 6.4 6.75 9.4375 C6.5025 9.953125 6.255 10.46875 6 11 C6 10.34 6 9.68 6 9 C5.34 9 4.68 9 4 9 C2.68 6.03 1.36 3.06 0 0 Z " fill="#66223D" transform="translate(120,275)"/>
<path d="M0 0 C3.57011026 3.732388 4.10913442 8.0949989 5 13 C4.01 12.67 3.02 12.34 2 12 C0.65743047 7.68964518 0 4.52218352 0 0 Z " fill="#E5D368" transform="translate(103,263)"/>
<path d="M0 0 C0.33 0.99 0.66 1.98 1 3 C-0.3125 5.5 -0.3125 5.5 -2 8 C-2.99 9.485 -2.99 9.485 -4 11 C-4.66 11 -5.32 11 -6 11 C-4.54955729 6.89041233 -2.48889248 3.56741255 0 0 Z " fill="#1F1804" transform="translate(81,102)"/>
<path d="M0 0 C0.66 0.33 1.32 0.66 2 1 C2 1.66 2 2.32 2 3 C-4.75 7 -4.75 7 -7 7 C-7 6.34 -7 5.68 -7 5 C-6.34 5 -5.68 5 -5 5 C-4.67 4.01 -4.34 3.02 -4 2 C-2.0625 0.75 -2.0625 0.75 0 0 Z " fill="#E4BDCE" transform="translate(275,313)"/>
<path d="M0 0 C1.49341969 2.98683937 0.40648676 4.95160978 -0.4375 8.125 C-0.72496094 9.22070312 -1.01242187 10.31640625 -1.30859375 11.4453125 C-1.53675781 12.28835937 -1.76492188 13.13140625 -2 14 C-2.66 13.67 -3.32 13.34 -4 13 C-4 11.35 -4 9.7 -4 8 C-3.34 8 -2.68 8 -2 8 C-1.855625 6.865625 -1.71125 5.73125 -1.5625 4.5625 C-1 1 -1 1 0 0 Z " fill="#282108" transform="translate(332,160)"/>
<path d="M0 0 C0.66 0 1.32 0 2 0 C2.33 4.95 2.66 9.9 3 15 C1.33407905 11.66815811 0.51283174 9.37734654 -0.1875 5.8125 C-0.36667969 4.93207031 -0.54585937 4.05164063 -0.73046875 3.14453125 C-0.81941406 2.43683594 -0.90835938 1.72914062 -1 1 C-0.67 0.67 -0.34 0.34 0 0 Z " fill="#E4D66E" transform="translate(162,125)"/>
<path d="M0 0 C1 2 1 2 0.75 3.9375 C-0.11172402 6.30724106 -1.16178797 7.30884493 -3 9 C-3.99 10.485 -3.99 10.485 -5 12 C-5.66 11.67 -6.32 11.34 -7 11 C-4.69 7.37 -2.38 3.74 0 0 Z " fill="#EADA77" transform="translate(77,90)"/>
<path d="M0 0 C9.41002278 0.96355353 9.41002278 0.96355353 14 2 C14 2.33 14 2.66 14 3 C12.41676312 3.027193 10.83338938 3.04648306 9.25 3.0625 C7.92742187 3.07990234 7.92742187 3.07990234 6.578125 3.09765625 C4.2181162 3.00826198 2.25501476 2.66912821 0 2 C0 1.34 0 0.68 0 0 Z " fill="#F5E06D" transform="translate(179,340)"/>
<path d="M0 0 C0.99 0.33 1.98 0.66 3 1 C2.34 1 1.68 1 1 1 C1 1.99 1 2.98 1 4 C-3.75 5.125 -3.75 5.125 -6 4 C-6 4.66 -6 5.32 -6 6 C-6.66 6 -7.32 6 -8 6 C-7.67 5.01 -7.34 4.02 -7 3 C-3.535 2.505 -3.535 2.505 0 2 C0 1.34 0 0.68 0 0 Z " fill="#F2E06B" transform="translate(306,335)"/>
<path d="M0 0 C2.31 0 4.62 0 7 0 C7 0.66 7 1.32 7 2 C8.65 2.33 10.3 2.66 12 3 C12 3.66 12 4.32 12 5 C10.37276701 4.54965877 8.74826336 4.08944646 7.125 3.625 C5.76761719 3.24214844 5.76761719 3.24214844 4.3828125 2.8515625 C2 2 2 2 0 0 Z " fill="#291F08" transform="translate(167,333)"/>
<path d="M0 0 C1.31602523 0.61754259 2.62773556 1.24428742 3.9375 1.875 C4.66839844 2.22304688 5.39929688 2.57109375 6.15234375 2.9296875 C8 4 8 4 9 6 C7.35 6.33 5.7 6.66 4 7 C3.566875 6.0409375 3.566875 6.0409375 3.125 5.0625 C2.17176549 2.84793921 2.17176549 2.84793921 0 2 C0 1.34 0 0.68 0 0 Z " fill="#1E0414" transform="translate(145,308)"/>
<path d="M0 0 C1.14926266 0.95421808 2.29430541 1.91352045 3.4375 2.875 C4.07558594 3.40867187 4.71367187 3.94234375 5.37109375 4.4921875 C7 6 7 6 8 8 C5.6875 7.8125 5.6875 7.8125 3 7 C0 2.96551724 0 2.96551724 0 0 Z " fill="#CABB65" transform="translate(127,301)"/>
<path d="M0 0 C2.96404505 2.80804268 5.44499019 5.18315774 7 9 C6.34 9 5.68 9 5 9 C5 8.34 5 7.68 5 7 C3.68 6.67 2.36 6.34 1 6 C0.67 4.02 0.34 2.04 0 0 Z " fill="#DCCC6A" transform="translate(116,287)"/>
<path d="M0 0 C3.17462943 2.40242227 5.85751741 4.61713276 8 8 C8 8.66 8 9.32 8 10 C3.79236776 8.4972742 2.1972242 5.76667005 0 2 C0 1.34 0 0.68 0 0 Z " fill="#E2DA7A" transform="translate(351,76)"/>
<path d="M0 0 C2 3 2 3 2 6 C4.31 6.33 6.62 6.66 9 7 C9 7.33 9 7.66 9 8 C6.03 8 3.06 8 0 8 C0 5.36 0 2.72 0 0 Z " fill="#180D00" transform="translate(83,209)"/>
<path d="M0 0 C0.66 0.33 1.32 0.66 2 1 C0.68 3.64 -0.64 6.28 -2 9 C-2.99 8.67 -3.98 8.34 -5 8 C-4.45773019 4.20411134 -2.79872437 2.52788007 0 0 Z " fill="#111515" transform="translate(238,117)"/>
<path d="M0 0 C2.31 0.33 4.62 0.66 7 1 C3.25 3 3.25 3 1 3 C1 3.66 1 4.32 1 5 C0.01 4.67 -0.98 4.34 -2 4 C-1.34 2.68 -0.68 1.36 0 0 Z " fill="#F9DF63" transform="translate(95,86)"/>
<path d="M0 0 C2.22825644 2.22825644 2.69239369 3.65761628 3.625 6.625 C4.01558594 7.85089844 4.01558594 7.85089844 4.4140625 9.1015625 C4.60742188 9.72804688 4.80078125 10.35453125 5 11 C4.01 11 3.02 11 2 11 C0.80712589 7.12315913 0 4.08378077 0 0 Z " fill="#C5B762" transform="translate(97,249)"/>
<path d="M0 0 C0.99 0.66 1.98 1.32 3 2 C1.68 4.64 0.36 7.28 -1 10 C-1.33 10 -1.66 10 -2 10 C-2.25 3.375 -2.25 3.375 0 0 Z " fill="#E7D66C" transform="translate(229,113)"/>
<path d="M0 0 C2.5178998 1.2589499 2.92708464 2.39057117 4.1875 4.875 C4.55230469 5.57367188 4.91710937 6.27234375 5.29296875 6.9921875 C6 9 6 9 5 12 C3 11 3 11 2.1484375 8.49609375 C1.89320312 7.48675781 1.63796875 6.47742188 1.375 5.4375 C1.11460938 4.42558594 0.85421875 3.41367187 0.5859375 2.37109375 C0.39257812 1.58863281 0.19921875 0.80617188 0 0 Z " fill="#CABB64" transform="translate(106,269)"/>
<path d="M0 0 C0.33 0.66 0.66 1.32 1 2 C1.99 1.67 2.98 1.34 4 1 C4.625 4.375 4.625 4.375 5 8 C4.34 8.66 3.68 9.32 3 10 C0 3.375 0 3.375 0 0 Z " fill="#1D1A04" transform="translate(96,244)"/>
<path d="M0 0 C0.33 0 0.66 0 1 0 C1 3.63 1 7.26 1 11 C0.34 11 -0.32 11 -1 11 C-2.23076923 4.6 -2.23076923 4.6 -1.0625 1.5625 C-0.711875 1.046875 -0.36125 0.53125 0 0 Z " fill="#E2CB64" transform="translate(335,150)"/>
<path d="M0 0 C0.66 0 1.32 0 2 0 C4.39073445 3.82517513 4.55966552 7.59665524 5 12 C4.34 12 3.68 12 3 12 C2.01 8.04 1.02 4.08 0 0 Z " fill="#E1D17B" transform="translate(330,124)"/>
<path d="M0 0 C0.99 0.66 1.98 1.32 3 2 C3 2.66 3 3.32 3 4 C-0.46153846 7 -0.46153846 7 -3 7 C-2.25 2.25 -2.25 2.25 0 0 Z " fill="#0F1012" transform="translate(315,128)"/>
<path d="M0 0 C4.42857143 5.14285714 4.42857143 5.14285714 5 9 C4.01 8.67 3.02 8.34 2 8 C0.3125 4.4375 0.3125 4.4375 -1 1 C-0.67 0.67 -0.34 0.34 0 0 Z " fill="#201905" transform="translate(154,112)"/>
<path d="M0 0 C-6.75 4 -6.75 4 -9 4 C-8.67 2.68 -8.34 1.36 -8 0 C-4.71303767 -0.79953138 -3.28976808 -1.09658936 0 0 Z " fill="#EAD773" transform="translate(95,92)"/>
<path d="M0 0 C1.45903258 0.30921884 2.91720722 0.62248799 4.375 0.9375 C5.18710937 1.11152344 5.99921875 1.28554687 6.8359375 1.46484375 C9 2 9 2 11 3 C10.67 3.66 10.34 4.32 10 5 C6.51329166 3.8905928 3.22515763 2.73662334 0 1 C0 0.67 0 0.34 0 0 Z " fill="#1D1202" transform="translate(288,89)"/>
<path d="M0 0 C1.98 0.99 3.96 1.98 6 3 C6 3.99 6 4.98 6 6 C5.01 6 4.02 6 3 6 C3 5.34 3 4.68 3 4 C2.01 4 1.02 4 0 4 C0 2.68 0 1.36 0 0 Z " fill="#F0E366" transform="translate(345,71)"/>
<path d="M0 0 C1.31571603 0.2547514 2.62760376 0.52934141 3.9375 0.8125 C4.66839844 0.96332031 5.39929688 1.11414063 6.15234375 1.26953125 C6.76207031 1.51058594 7.37179688 1.75164062 8 2 C8.33 2.99 8.66 3.98 9 5 C8.01 5.495 8.01 5.495 7 6 C5.83054208 5.19152271 4.66449539 4.37810888 3.5 3.5625 C2.8503125 3.11003906 2.200625 2.65757812 1.53125 2.19140625 C1.0259375 1.79824219 0.520625 1.40507812 0 1 C0 0.67 0 0.34 0 0 Z " fill="#31290D" transform="translate(151,322)"/>
<path d="M0 0 C1.65 1.65 3.3 3.3 5 5 C2 6 2 6 -1 5 C-0.67 3.35 -0.34 1.7 0 0 Z " fill="#20050D" transform="translate(140,302)"/>
<path d="M0 0 C2.1385485 2.1385485 2.42655063 3.13275314 3 6 C1.68 6.33 0.36 6.66 -1 7 C-0.67 5.68 -0.34 4.36 0 3 C-0.66 3 -1.32 3 -2 3 C-2 2.34 -2 1.68 -2 1 C-1.34 0.67 -0.68 0.34 0 0 Z " fill="#060403" transform="translate(119,281)"/>
<path d="M0 0 C1.65 0 3.3 0 5 0 C5.66 2.31 6.32 4.62 7 7 C5.83040013 6.02433888 4.66438823 5.044375 3.5 4.0625 C2.8503125 3.51722656 2.200625 2.97195312 1.53125 2.41015625 C1.0259375 1.94480469 0.520625 1.47945312 0 1 C0 0.67 0 0.34 0 0 Z " fill="#1F1402" transform="translate(320,209)"/>
<path d="M0 0 C0.99 0.33 1.98 0.66 3 1 C3.73046875 2.84765625 3.73046875 2.84765625 4.1875 5.0625 C4.34605469 5.79597656 4.50460937 6.52945313 4.66796875 7.28515625 C4.83232422 8.13400391 4.83232422 8.13400391 5 9 C4.34 9 3.68 9 3 9 C0 3.375 0 3.375 0 0 Z " fill="#EEDC71" transform="translate(326,114)"/>
<path d="M0 0 C3.057952 1.73559438 5.63379989 3.38472619 8 6 C6.35 6.33 4.7 6.66 3 7 C3 5.68 3 4.36 3 3 C2.01 2.67 1.02 2.34 0 2 C0 1.34 0 0.68 0 0 Z " fill="#211A05" transform="translate(136,94)"/>
<path d="M0 0 C-3.75 2 -3.75 2 -6 2 C-6.33 2.66 -6.66 3.32 -7 4 C-7.99 3.01 -8.98 2.02 -10 1 C-6.1496895 -1.56687367 -4.41430237 -0.83288724 0 0 Z " fill="#1B0F17" transform="translate(188,331)"/>
<path d="M0 0 C1.485 0.99 1.485 0.99 3 2 C3.1875 4.625 3.1875 4.625 3 7 C2.01 6.67 1.02 6.34 0 6 C-1 3 -1 3 0 0 Z " fill="#201809" transform="translate(135,304)"/>
<path d="M0 0 C0.99 0 1.98 0 3 0 C1.7508258 3.45925163 0.32472205 6.14693203 -2 9 C-2 7.35 -2 5.7 -2 4 C-1.34 4 -0.68 4 0 4 C0 2.68 0 1.36 0 0 Z " fill="#EDDC82" transform="translate(367,274)"/>
<path d="M0 0 C4.875 4.625 4.875 4.625 6 8 C5.01 9.485 5.01 9.485 4 11 C3.71125 10.236875 3.4225 9.47375 3.125 8.6875 C2.03730987 5.84970692 2.03730987 5.84970692 0 3 C0 2.01 0 1.02 0 0 Z " fill="#F2E264" transform="translate(65,261)"/>
<path d="M0 0 C1.5 1.375 1.5 1.375 3 3 C3 3.66 3 4.32 3 5 C2.01 5.495 2.01 5.495 1 6 C0.34 6.99 -0.32 7.98 -1 9 C-1.125 2.25 -1.125 2.25 0 0 Z " fill="#EDE16D" transform="translate(59,123)"/>
<path d="M0 0 C1.65 0.33 3.3 0.66 5 1 C3.71034824 2.37562854 2.37310707 3.70766393 1 5 C0.34 5 -0.32 5 -1 5 C-0.67 3.35 -0.34 1.7 0 0 Z " fill="#0F1317" transform="translate(251,101)"/>
<path d="M0 0 C2.97 0.99 5.94 1.98 9 3 C8.67 4.32 8.34 5.64 8 7 C5.15603485 4.77094624 2.56144795 2.56144795 0 0 Z " fill="#DFCF74" transform="translate(134,92)"/>
<path d="M0 0 C0.33 1.32 0.66 2.64 1 4 C-1.64 4.33 -4.28 4.66 -7 5 C-2.25 1.125 -2.25 1.125 0 0 Z " fill="#282009" transform="translate(95,91)"/>
<path d="M0 0 C1.32 0.33 2.64 0.66 4 1 C1.36 2.98 -1.28 4.96 -4 7 C-3.34 5.68 -2.68 4.36 -2 3 C-1.34 3 -0.68 3 0 3 C0 2.01 0 1.02 0 0 Z " fill="#E9DD7C" transform="translate(337,312)"/>
<path d="M0 0 C2.02054804 1.64169528 4.02043058 3.30911778 6 5 C6 5.33 6 5.66 6 6 C4.35 6 2.7 6 1 6 C0.67 4.02 0.34 2.04 0 0 Z " fill="#280619" transform="translate(129,290)"/>
<path d="M0 0 C1.5 1.0625 1.5 1.0625 3 3 C3.1875 6.6875 3.1875 6.6875 3 10 C0.70366176 6.55549263 0.45983515 4.06187717 0 0 Z " fill="#1D030D" transform="translate(115,268)"/>
<path d="M0 0 C0.66 0 1.32 0 2 0 C3.35439668 2.70879335 3.06501451 5.00933268 3 8 C2.34 7.67 1.68 7.34 1 7 C0.59270772 4.67843403 0.25561323 2.3431213 0 0 Z " fill="#EADD6D" transform="translate(55,238)"/>
<path d="M0 0 C-1.29299694 2.88437779 -2.65941363 4.87219421 -5 7 C-5.1875 4.625 -5.1875 4.625 -5 2 C-2 0 -2 0 0 0 Z " fill="#E3D373" transform="translate(237,106)"/>
<path d="M0 0 C0.66 0.33 1.32 0.66 2 1 C0.68 2.32 -0.64 3.64 -2 5 C-2.99 4.01 -3.98 3.02 -5 2 C-2.625 0.9375 -2.625 0.9375 0 0 Z " fill="#030502" transform="translate(135,96)"/>
<path d="M0 0 C0.66 0.33 1.32 0.66 2 1 C2.33 1.99 2.66 2.98 3 4 C1.02 4 -0.96 4 -3 4 C-3.33 3.34 -3.66 2.68 -4 2 C-2.125 0.9375 -2.125 0.9375 0 0 Z " fill="#171915" transform="translate(264,95)"/>
</svg>
